<?xml version="1.0" encoding="utf-8"?>
<!-- Generator: Adobe Illustrator 20.1.0, SVG Export Plug-In . SVG Version: 6.00 Build 0)  -->
<svg version="1.1" id="Layer_1" xmlns="http://www.w3.org/2000/svg" xmlns:xlink="http://www.w3.org/1999/xlink" x="0px" y="0px"
	 viewBox="0 0 75 75" style="enable-background:new 0 0 75 75;" xml:space="preserve">
<style type="text/css">
	.st0{fill:#E95F26;}
</style>
<g>
	<path class="st0" d="M11.6,12.2C23.8-0.4,44-0.6,56.4,11.6l0.1,0.1h-3.8c-0.6,0-1.2,0.5-1.2,1.2c0,0.6,0.5,1.2,1.2,1.2l6.9-0.1
		c0.3,0,0.6-0.1,0.9-0.4c0.4,0.1,0.5-0.3,0.5-0.5l-0.1-6.9c0-0.6-0.5-1.2-1.2-1.2s-1.2,0.5-1.2,1.2v3.8l-0.1-0.3
		C44.8-3.4,23-3.1,9.8,10.4c-4.5,4.7-7.7,10.5-9.1,17C-0.5,33.5-0.1,40,2.1,46.1c0.1,0.5,0.6,0.8,1.2,0.8c0.1,0,0.3,0,0.4-0.1
		c0.6-0.3,0.9-0.9,0.8-1.6C0.3,33.6,3,21,11.6,12.2z"/>
	<path class="st0" d="M72.7,24.8c-0.3-0.7-1-1-1.8-0.9c-0.7,0.3-1,1-0.9,1.8c4.5,12.6,1.5,26.4-7.8,36c-6.7,6.9-15.7,10.5-24.9,10.5
		c-8.7,0-17.5-3.3-24.3-9.9l-0.1-0.1h4.2c0.7,0,1.3-0.6,1.3-1.3c0-0.7-0.6-1.3-1.3-1.3l-7.5,0.1c-0.7-0.1-1.3,0.4-1.3,1.2l0.1,7.5
		c0,0.7,0.6,1.3,1.3,1.3s1.3-0.6,1.3-1.3v-4.2l0.1,0.1c7.3,7,16.8,10.6,26.2,10.6c9.7,0,19.5-3.7,26.8-11.2
		c4.9-5.1,8.4-11.5,9.9-18.6C75.6,38.5,75.1,31.4,72.7,24.8z"/>
</g>
<g>
	<g>
		<circle class="st0" cx="37.5" cy="44.4" r="1.7"/>
		<path class="st0" d="M37.3,39.9c0.5,0,1-0.5,1-1v-9.1c0-0.5-0.5-1-1-1c-0.5,0-1,0.5-1,1v9.1C36.3,39.4,36.8,39.9,37.3,39.9z"/>
		<path class="st0" d="M41,22.2L41,22.2c-0.9-1.4-1.9-2.9-3.5-2.9c-1.7,0-2.6,1.4-3.5,2.8v0.1L18.9,47.9c-0.1,0.2-0.2,0.2-0.2,0.5
			c0,1.9,1.5,3.3,3.3,3.3h30.9c1.9,0,3.3-1.4,3.3-3.3c0-0.2-0.1-0.3-0.2-0.5L41,22.2z M53,49.7H22.1c-0.7,0-1.3-0.5-1.4-1.1l15-25.4
			c0.8-1.2,1.2-1.9,1.9-1.9c0.6,0,1.2,0.9,1.8,1.9l15,25.3C54.3,49.2,53.7,49.7,53,49.7z"/>
	</g>
</g>
</svg>
