<?xml version="1.0" encoding="utf-8"?>
<!-- Generator: Adobe Illustrator 22.1.0, SVG Export Plug-In . SVG Version: 6.00 Build 0)  -->
<svg version="1.1" id="Capa_1" xmlns="http://www.w3.org/2000/svg" xmlns:xlink="http://www.w3.org/1999/xlink" x="0px" y="0px"
	 viewBox="0 0 178 51" style="enable-background:new 0 0 178 51;" xml:space="preserve">
<style type="text/css">
	.st0{fill:#003262;}
</style>
<g>
	<path class="st0" d="M112.8,19.3C112.8,19.3,112.8,19.3,112.8,19.3c-0.1,0.1-0.1,0.1-0.1,0.1c-0.2,0.6-0.5,1.1-0.8,1.6
		c-0.4,0.5-0.9,0.8-1.5,0.9c-0.8,0.1-1.4-0.2-2.1-0.6c-0.6-0.4-1.1-0.8-1.7-1.2c-0.6-0.5-1.2-1-1.8-1.5c-0.7-0.6-1.3-1.1-2-1.7
		c-0.9-0.6-1.7-1.3-2.6-1.9c-1.1-0.7-2.3-1.2-3.6-1.5c-0.3-0.1-0.7-0.1-1-0.1c-0.4,0-0.8,0-1.2,0c-1,0-1.9,0.4-2.6,1
		c-1.1,1-2.1,1.9-3.3,2.7c-0.9,0.6-1.8,1.1-2.8,1.5c0,0,0,0,0,0c0,0,0,0.1,0,0.1c1.1,0.3,2.2,0.6,3.4,0.8c1.5,0.4,3,0.7,4.5,1
		c0.8,0.2,1.6,0.3,2.3,0.4c0.8,0.1,1.6,0.2,2.4,0.2c0.6,0,1.2,0.1,1.8,0.1c0.8,0,1.5,0,2.3,0.1c0.7,0,1.4,0.1,2.1,0.1
		c1.2,0.1,2.4,0.3,3.6,0.7c0.8,0.3,1.5,0.7,2.2,1.3c0.7,0.7,1.2,1.5,1.5,2.4c0.3,0.8,0.4,1.6,0.5,2.4c0,0.1,0,0.1,0,0.2
		c-0.2-0.6-0.3-1.1-0.5-1.6c-0.3-1-0.8-1.9-1.6-2.6c-0.7-0.6-1.5-1-2.4-1.2c-0.6-0.1-1.1-0.2-1.7-0.2c-0.9,0-1.8-0.1-2.6,0
		c-0.8,0-1.5,0.1-2.3,0.2c-0.5,0-1,0.1-1.5,0.1c-0.7,0-1.4,0.1-2.1,0.1c-0.9,0-1.8,0-2.7,0c-0.4,0-0.9,0-1.3-0.1
		c-0.6-0.1-1.2-0.1-1.8-0.2c-0.5,0-0.9-0.1-1.4-0.1c-0.5-0.1-1.1-0.1-1.6-0.2c-0.4-0.1-0.7-0.1-1.1-0.2c-0.2,0-0.4-0.1-0.6-0.1
		c-0.1,0-0.1,0-0.2,0c0,0-0.1,0.1,0,0.1c0.3,0.3,0.6,0.6,1,0.8c0.2,0.2,0.5,0.3,0.8,0.4c1.7,0.6,3.5,1.2,5.2,1.7
		c2.7,0.8,5.5,1.5,8.2,2.2c1.4,0.4,2.9,0.8,4.3,1.3c0.7,0.2,1.3,0.6,2,1c0.4,0.2,0.7,0.6,0.8,1.1c0.1,0.5,0,0.9-0.3,1.3
		c-0.3,0.3-0.6,0.6-0.9,1c0,0,0,0.1,0,0.1c1,0.6,2,1.2,3,1.9c0,0,0,0.1,0,0.1c-0.1,0-0.2-0.1-0.2-0.1c-1-0.5-2-1-2.9-1.5
		c-0.2-0.1-0.4-0.1-0.6,0.1c-0.3,0.2-0.7,0.4-1,0.6c-0.1,0-0.1,0,0-0.1c0.3-0.2,0.7-0.5,1.1-0.8c0,0,0-0.1,0-0.1
		c-0.9-0.3-1.7-0.5-2.6-0.6c-1.1-0.2-2.2-0.1-3.4-0.1c-1.3,0-2.5-0.2-3.7-0.6c-0.1,0-0.2-0.1-0.3-0.1c0,0.1,0,0.1-0.1,0.1
		c0.1,0.1,0.3,0.3,0.4,0.4c0.1,0.1,0.2,0.1,0.3,0.2c0.8,0.8,1.6,1.6,2.4,2.3c0.9,0.8,1.9,1.6,3,2.2c0.8,0.4,1.7,0.6,2.7,0.5
		c0.9-0.1,1.8-0.4,2.6-0.9c0.3-0.2,0.7-0.4,1-0.7c0,0,0.1,0,0.1,0.1c-0.2,0.2-0.4,0.4-0.7,0.6c-0.7,0.6-1.6,1.1-2.5,1.4
		c-0.7,0.2-1.4,0.2-2.2,0.2c-0.8-0.1-1.6-0.3-2.4-0.8c-1-0.6-1.9-1.2-2.8-1.8c-0.8-0.6-1.6-1.2-2.3-1.8c-0.8-0.6-1.6-1.3-2.5-1.9
		c-0.5-0.4-1-0.7-1.5-1c0,0-0.1,0-0.1,0.1c0.1,0.4,0.2,0.7,0.3,1.1c0,0.1,0.1,0.2,0.1,0.3c0,0.5,0.3,0.7,0.6,1
		c0.6,0.5,1.2,1,1.7,1.4c0.7,0.5,1.3,1.1,2,1.6c0.6,0.5,1.2,1,1.9,1.5c0.7,0.5,1.4,1,2.2,1.4c0.9,0.5,1.8,1,2.8,1.3
		c0.7,0.2,1.5,0.4,2.3,0.5c0.9,0.1,1.8,0.1,2.6-0.2c0.9-0.4,1.4-1,1.6-2c0.1-0.5,0.1-1,0-1.5c0,0,0-0.1,0-0.1c0,0.2,0.1,0.4,0.1,0.6
		c0.1,0.7,0.1,1.5-0.2,2.2c-0.3,0.6-0.7,1-1.2,1.3c-0.6,0.3-1.2,0.5-1.8,0.5c-0.6,0-1.2,0.1-1.8,0c-0.9-0.1-1.8-0.2-2.7-0.5
		c-1.3-0.4-2.5-0.9-3.7-1.5c-1-0.6-1.9-1.2-2.8-1.8c-0.9-0.6-1.7-1.2-2.6-1.8c0,0,0,0-0.1,0c0,0-0.1,0-0.1,0.1
		c0.1,0.4,0.2,0.8,0.2,1.1c0.1,0.4,0.3,0.6,0.7,0.8c1.5,0.5,2.9,1.1,4.3,1.9c1.4,0.7,2.6,1.6,3.8,2.6c0.6,0.5,1.3,1.1,1.8,1.8
		c0.7,0.8,1.3,1.7,1.7,2.8c0.3,0.9,0.3,1.7,0,2.6c0,0,0,0.1-0.1,0.1c0.2-1,0.2-2-0.3-2.9c-0.3-0.5-0.6-1-1-1.5
		c-0.8-1-1.8-1.8-2.8-2.5c-1-0.7-2.1-1.3-3.2-1.8c-0.9-0.4-1.8-0.7-2.7-1.1c-0.4-0.2-0.9-0.3-1.3-0.4c0,0-0.1,0-0.1,0
		c0,0-0.1,0,0,0.1c0.1,0.3,0.1,0.5,0.2,0.7c0.4,1,0.8,2,1.5,2.8c0.6,0.7,1.2,1.4,2,1.8c1,0.6,2.1,0.9,3.2,1.1
		c0.6,0.1,1.2,0.1,1.8,0.2c0.1,0,0.1,0.1,0,0.1c-0.1,0-0.2,0-0.3,0c-0.5,0-1.1,0-1.6,0c-1.2-0.1-2.3-0.3-3.4-0.8
		c-0.5-0.2-1-0.5-1.4-0.9c-0.7-0.5-1.3-1.2-1.8-1.9c-0.7-1.1-1.3-2.2-1.8-3.5c0-0.1-0.1-0.2-0.2-0.2c-0.9-0.2-1.9-0.3-2.9-0.3
		c-1.5,0-2.9-0.3-4.2-1c-0.9-0.4-1.7-1-2.4-1.6c-1.5-1.3-2.7-2.9-3.6-4.6c-0.6-1-1.1-2-1.5-3c-0.8-1.7-1.4-3.4-1.9-5.2
		c-0.2-0.7-0.4-1.5-0.6-2.2c0-0.1-0.1-0.2-0.2-0.2c-1.4-0.5-2.6-1.3-3.8-2.2c-0.7-0.6-1.4-1.3-2.1-2c-0.8-0.9-1.4-1.9-2-2.9
		c-0.7-1.4-1.3-2.8-1.8-4.2c-0.3-0.9-0.5-1.9-0.6-2.9c0-0.1,0-2.1,0-2.2c0-0.1,0-0.2,0-0.3l0,0.1c0,0,0,0,0,0c0,0,0,0,0,0
		c0-0.7,0.2-1.4,0.5-2.1c0.2-0.5,0.4-1.1,1-1.3c0.2-0.1,0.4-0.1,0.5-0.2c0.4,0,0.8,0,1.2-0.1c0.2,0,0.4,0.1,0.6,0.1
		c1.1,0.3,2.1,0.7,3,1.2c0.8,0.4,1.5,0.8,2.3,1.2c0.6,0.3,1.3,0.6,1.9,1c0.5,0.3,1,0.5,1.6,0.6c0.9,0.1,1.5,0.5,2.1,1.2
		c0.3,0.4,0.4,0.8,0.3,1.3c-0.1,0.4,0,0.8,0.2,1.2c0.3,0.5,0.6,0.9,0.9,1.4c0.5,0.9,0.9,1.8,1.3,2.7c0.3,0.9,0.5,1.8,0.6,2.8
		c0,0,0,0,0.1,0c0.2-0.1,0.4-0.1,0.6-0.2c1.5-0.4,3-1.1,4.3-2c0.7-0.5,1.4-1,2.2-1.5c0.8-0.6,1.8-0.9,2.8-0.9c0.9-0.1,1.7,0,2.6,0.2
		c1.2,0.3,2.4,0.7,3.5,1.3c1.3,0.7,2.4,1.6,3.5,2.6c0.7,0.6,1.4,1.3,2,1.9c1.1,1.1,2.1,2.2,3.3,3.2c0.5,0.4,1.1,0.9,1.8,1
		c0.7,0.2,1.3,0.1,1.8-0.5c0.4-0.4,0.6-0.8,0.9-1.2C112.6,19.5,112.7,19.4,112.8,19.3C112.8,19.2,112.8,19.3,112.8,19.3L112.8,19.3z
		 M92.2,37.5C92.2,37.6,92.3,37.5,92.2,37.5C92.3,37.5,92.3,37.5,92.2,37.5c-0.2-1-0.5-1.9-0.8-2.7c0-0.1-0.1-0.2-0.2-0.2
		c-1-0.7-1.9-1.3-2.9-2c-1.5-1.1-2.9-2.1-4.4-3.2c-0.8-0.6-1.6-1.3-2.4-1.9c-0.1-0.1-0.3-0.2-0.4-0.3c-0.1,0.1-0.1,0-0.1,0.1
		c0.3,0.9,0.6,1.8,1,2.6c0.3,0.8,0.7,1.5,1.2,2.3c0.4,0.8,1,1.6,1.6,2.2c0.5,0.5,0.9,0.9,1.5,1.3c0.7,0.6,1.6,1,2.5,1.2
		c0.5,0.1,1.1,0.2,1.6,0.2C90.9,37.3,91.6,37.4,92.2,37.5z M93.3,27c0,0.1,0,0.1-0.1,0.1c1,0.8,1.9,1.5,2.9,2.3
		c0.7,0.5,1.5,1,2.3,1.3c0.7,0.3,1.4,0.5,2.1,0.5c0.7,0.1,1.4,0.2,2.1,0.3c0.5,0.1,1,0.2,1.6,0.3c1.1,0.2,2.2,0.6,3.3,1.2
		c0,0,0,0,0.1,0c0.5-0.4,0.8-0.9,1.1-1.5c0.1-0.2,0.1-0.5-0.1-0.7c-0.2-0.3-0.5-0.6-0.9-0.7c-1-0.5-2.1-0.7-3.2-1
		c-0.8-0.2-1.7-0.3-2.5-0.5c-0.7-0.1-1.3-0.2-2-0.4c-0.6-0.1-1.2-0.2-1.8-0.3c-0.6-0.1-1.3-0.2-1.9-0.4c-0.8-0.1-1.6-0.3-2.4-0.4
		C93.8,27.1,93.5,27.1,93.3,27z M78.4,8.4c0.7,0,1.1-0.5,1.1-1.1c0-0.7-0.7-1.2-1.2-1.2c-0.6,0-1.2,0.5-1.2,1.1
		C77.2,7.8,77.8,8.5,78.4,8.4z M87.2,27.9C87.2,28,87.2,28,87.2,27.9c0.7,0.7,1.4,1.4,2.2,2c0.1-0.1,0.1,0,0.1-0.1
		c-0.1-0.3-0.3-0.5-0.4-0.8c-0.1-0.1-0.2-0.3-0.4-0.3c-0.4-0.3-0.9-0.5-1.4-0.7C87.3,28,87.3,28,87.2,27.9z"/>
	<path class="st0" d="M77.6,6.8c0.9-0.1,1.3,0,1.6,0.8c0,0,0,0,0,0.1C78.5,7.9,77.8,7.6,77.6,6.8C77.5,6.8,77.6,6.8,77.6,6.8z"/>
</g>
</svg>
