<?xml version="1.0" encoding="utf-8"?>
<!-- Generator: Adobe Illustrator 22.1.0, SVG Export Plug-In . SVG Version: 6.00 Build 0)  -->
<svg version="1.1" id="Servicios" xmlns="http://www.w3.org/2000/svg" xmlns:xlink="http://www.w3.org/1999/xlink" x="0px" y="0px"
	 viewBox="0 0 400 200" style="enable-background:new 0 0 400 200;" xml:space="preserve">
<style type="text/css">
	.st0{display:none;}
	.st1{display:inline;}
	.st2{fill:#3D80C4;}
	.st3{clip-path:url(#SVGID_2_);}
	.st4{opacity:5.000000e-02;fill:#FFFFFF;}
	.st5{clip-path:url(#SVGID_4_);}
	.st6{fill:#56A3D8;}
	.st7{fill:#2B75B2;}
	.st8{fill:#FFFFFF;}
	.st9{fill:#F8DB77;}
	.st10{fill:#FCBC2B;}
	.st11{fill:#25AD96;}
	.st12{fill:#3BBBE2;}
	.st13{fill:#59A4E2;}
	.st14{font-family:'OmnesMedium';}
	.st15{font-size:19.2px;}
	.st16{letter-spacing:0.8;}
	.st17{display:none;fill:#7DBEF4;}
	.st18{font-size:19.8135px;}
	.st19{display:inline;fill:url(#SVGID_5_);}
	.st20{display:inline;fill:#546E7A;}
	.st21{display:inline;fill:#5EC6D3;}
	.st22{display:inline;fill:#F26D64;}
	.st23{display:inline;fill:#FFFFFF;}
	.st24{font-family:'MyriadPro-Regular';}
	.st25{font-size:17.584px;}
	.st26{font-size:18.0831px;}
	.st27{font-size:18.0861px;}
	.st28{display:inline;clip-path:url(#SVGID_7_);fill:#B2E2E9;}
	.st29{display:inline;opacity:5.000000e-02;clip-path:url(#SVGID_7_);fill:#4A4A4A;}
	.st30{display:inline;clip-path:url(#SVGID_7_);fill:#F5A976;}
	.st31{display:inline;clip-path:url(#SVGID_7_);fill:#FFB07B;}
	.st32{display:inline;clip-path:url(#SVGID_7_);fill:#EBA271;}
	.st33{display:inline;clip-path:url(#SVGID_7_);}
	.st34{fill:#919191;}
	.st35{fill:#545454;}
	.st36{fill:#666666;}
	.st37{fill:#F5FFE8;}
	.st38{fill:#68BD00;}
	.st39{fill:#3B3B3B;}
	.st40{font-family:'Lato-Bold';}
	.st41{font-size:9.6874px;}
	.st42{fill:#5BA600;}
	.st43{fill:#80E855;}
	.st44{fill:#C9E0AB;}
	.st45{fill:#CC0000;}
	.st46{fill:#FF0000;}
	.st47{fill:#FFB07B;}
	.st48{fill:#E89F72;}
	.st49{fill:#FFC096;}
	.st50{fill:#EDEDED;}
	.st51{fill:#595959;}
	.st52{fill:#4A4A4A;}
	.st53{display:inline;clip-path:url(#SVGID_7_);fill:#FFC096;}
	.st54{display:inline;clip-path:url(#SVGID_7_);fill:#FFFFFF;}
	.st55{display:inline;clip-path:url(#SVGID_7_);fill:#EDEDED;}
	.st56{display:inline;clip-path:url(#SVGID_7_);fill:#595959;}
	.st57{display:inline;clip-path:url(#SVGID_7_);fill:#4A4A4A;}
	.st58{display:inline;opacity:0.37;fill:#FF0000;}
	.st59{display:inline;opacity:0.4;fill:#EA403E;stroke:#FFFFFF;stroke-width:2;stroke-miterlimit:10;}
	.st60{font-size:4.5012px;}
	.st61{font-family:'Lato-Medium';}
	.st62{fill:url(#SVGID_8_);}
	.st63{opacity:0.4;}
	.st64{display:inline;opacity:0.4;fill:#EA403E;}
	.st65{display:inline;fill:url(#SVGID_9_);}
	.st66{display:inline;fill:url(#SVGID_10_);}
	.st67{display:inline;fill:url(#SVGID_11_);}
	.st68{display:inline;fill:url(#SVGID_12_);}
	.st69{display:inline;fill:url(#SVGID_13_);}
	.st70{display:inline;fill:url(#SVGID_14_);}
	.st71{display:inline;fill:url(#SVGID_15_);}
	.st72{clip-path:url(#SVGID_17_);fill:url(#SVGID_18_);}
	.st73{clip-path:url(#SVGID_17_);fill:url(#SVGID_19_);}
	.st74{display:inline;fill:#FF0000;}
	.st75{clip-path:url(#SVGID_21_);fill:#FF0000;}
	.st76{display:inline;fill:#C2D5D8;}
	.st77{display:inline;fill:#E16B5A;}
	.st78{fill:#CC6152;}
	.st79{display:inline;fill:#406A80;}
	.st80{display:inline;fill:#395F73;}
	.st81{fill:#F5F5F5;}
</style>
<g class="st0">
	<g class="st1">
		<g>
			<rect x="0" class="st2" width="400" height="200"/>
		</g>
		<g>
			<defs>
				<rect id="SVGID_1_" x="0" width="400" height="200"/>
			</defs>
			<clipPath id="SVGID_2_">
				<use xlink:href="#SVGID_1_"  style="overflow:visible;"/>
			</clipPath>
			<g class="st3">
				<ellipse class="st4" cx="200" cy="100" rx="173.5" ry="130.1"/>
				<ellipse class="st4" cx="200" cy="100" rx="150.8" ry="113.1"/>
				<ellipse class="st4" cx="200" cy="100" rx="119.1" ry="89.3"/>
			</g>
		</g>
	</g>
	<g class="st1">
		<defs>
			<rect id="SVGID_3_" x="0" width="400" height="200"/>
		</defs>
		<clipPath id="SVGID_4_">
			<use xlink:href="#SVGID_3_"  style="overflow:visible;"/>
		</clipPath>
		<g class="st5">
			<g>
				<g>
					<g>
						<g>
							<polygon class="st6" points="311.4,194.8 337.7,194.8 350.6,211.6 349.3,212.2 336.8,196 312.3,196 300,211.9 312.5,228.1 
								311.2,228.7 298.3,211.9 							"/>
						</g>
						<g>
							<path class="st6" d="M273.5,178.3h26.3l13.1,17.1l-13.1,17.1h-26.3l-13.1-17.1L273.5,178.3z M298.9,179.5h-24.5l-12.3,15.9
								l12.3,15.9h24.5l12.3-15.9L298.9,179.5z"/>
						</g>
						<g>
							<g>
								<polygon class="st6" points="236,194.8 261.8,194.8 275,211.9 261.8,229 236,229 236,227.8 260.9,227.8 273.2,211.9 
									260.9,196 236,196 								"/>
							</g>
							<g>
								<polygon class="st6" points="197.6,178.3 223.9,178.3 236.8,195.1 235.5,195.7 223,179.5 198.5,179.5 186.2,195.4 
									198.7,211.6 197.4,212.2 184.4,195.4 								"/>
							</g>
						</g>
						<g>
							<g>
								<polygon class="st6" points="159.7,194.8 185.5,194.8 185.5,196 160.5,196 148.1,212.2 146.7,211.6 								"/>
							</g>
							<g>
								<polygon class="st6" points="148.2,178.6 161.1,195.4 148,212.5 121.7,212.5 108.8,195.7 110.1,195.1 122.6,211.3 
									147.1,211.3 159.4,195.4 146.9,179.2 								"/>
							</g>
							<g>
								<g>
									<polygon class="st6" points="83.8,194.8 110.1,194.8 123.2,211.9 110.3,228.7 108.9,228.1 121.4,211.9 109.2,196 84.7,196 
										72.2,212.2 70.9,211.6 									"/>
								</g>
								<g>
									<polygon class="st6" points="45.6,178.6 47,179.2 34.5,195.4 46.7,211.3 71.2,211.3 83.5,195.4 71,179.2 72.4,178.6 
										85.3,195.4 72.1,212.5 45.8,212.5 32.7,195.4 									"/>
								</g>
							</g>
							<g>
								<g>
									<polygon class="st6" points="7.9,194.8 34.2,194.8 47.1,211.6 45.8,212.2 33.3,196 8.8,196 -3.5,211.9 9,228.1 7.7,228.7 
										-5.2,211.9 									"/>
								</g>
								<g>
									<path class="st6" d="M-30,178.3h26.3l13.1,17.1l-13.1,17.1H-30l-13.1-17.1L-30,178.3z M-4.6,179.5h-24.5l-12.3,15.9
										l12.3,15.9h24.5l12.3-15.9L-4.6,179.5z"/>
								</g>
							</g>
						</g>
					</g>
					<g>
						<g>
							<path class="st6" d="M311.4,161.8h26.3l13.1,17.1L337.7,196h-26.3l-13.1-17.1L311.4,161.8z M336.8,163h-24.5L300,178.9
								l12.3,15.9h24.5l12.3-15.9L336.8,163z"/>
						</g>
						<g>
							<polygon class="st6" points="273.5,145.3 299.8,145.3 312.9,162.4 300,179.2 298.6,178.6 311.1,162.4 298.9,146.5 
								274.4,146.5 261.9,162.7 260.5,162.1 							"/>
						</g>
						<g>
							<g>
								<polygon class="st6" points="235.5,161.8 261.4,161.8 261.4,163 236.4,163 224.2,178.9 236.4,194.8 261.4,194.8 261.4,196 
									235.5,196 222.4,178.9 								"/>
							</g>
							<g>
								<path class="st6" d="M197.6,145.3h26.3l13.1,17.1l-13.1,17.1h-26.3l-13.1-17.1L197.6,145.3z M223,146.5h-24.5l-12.3,15.9
									l12.3,15.9H223l12.3-15.9L223,146.5z"/>
							</g>
						</g>
						<g>
							<g>
								<polygon class="st6" points="122.2,145.3 148,145.3 160.9,162.1 159.6,162.7 147.1,146.5 122.2,146.5 								"/>
							</g>
							<g>
								<g>
									<polygon class="st6" points="83.6,162.1 84.9,162.7 72.4,178.9 84.9,195.1 83.6,195.7 70.6,178.9 									"/>
								</g>
							</g>
							<g>
								<g>
									<path class="st6" d="M7.9,161.8h26.3l13.1,17.1L34.2,196H7.9l-13.1-17.1L7.9,161.8z M33.3,163H8.8l-12.3,15.9l12.3,15.9
										h24.5l12.3-15.9L33.3,163z"/>
								</g>
								<g>
									<polygon class="st6" points="-29.6,145.3 -3.7,145.3 9.4,162.4 -3.7,179.5 -29.6,179.5 -29.6,178.3 -4.6,178.3 7.6,162.4 
										-4.6,146.5 -29.6,146.5 									"/>
								</g>
							</g>
						</g>
					</g>
					<g>
						<g>
							<path class="st6" d="M311.4,62.8h26.3l13.1,17.1L337.7,97h-26.3l-13.1-17.1L311.4,62.8z M336.8,64h-24.5L300,79.9l12.3,15.9
								h24.5L349,79.9L336.8,64z"/>
						</g>
						<g>
							<polygon class="st6" points="300,46.6 312.9,63.4 299.8,80.5 273.5,80.5 260.5,63.7 261.9,63.1 274.4,79.3 298.9,79.3 
								311.1,63.4 298.6,47.2 							"/>
						</g>
						<g>
							<g>
								<path class="st6" d="M235.5,62.8h26.3L275,79.9L261.8,97h-26.3l-13.1-17.1L235.5,62.8z M260.9,64h-24.5l-12.3,15.9
									l12.3,15.9h24.5l12.3-15.9L260.9,64z"/>
							</g>
							<g>
								<polygon class="st6" points="197.6,46.3 223.9,46.3 237,63.4 224.1,80.2 222.8,79.6 235.2,63.4 223,47.5 198.5,47.5 
									186,63.7 184.7,63.1 								"/>
							</g>
						</g>
					</g>
					<g>
						<g>
							<polygon class="st6" points="311.8,29.8 337.7,29.8 350.8,46.9 337.7,64 311.8,64 311.8,62.8 336.8,62.8 349,46.9 336.8,31 
								311.8,31 							"/>
						</g>
						<g>
							<g>
								<polygon class="st6" points="186.2,30.1 199.1,46.9 185.9,64 160.1,64 160.1,62.8 185,62.8 197.3,46.9 184.8,30.7 								
									"/>
							</g>
						</g>
					</g>
					<g>
						<g>
							<path class="st6" d="M311.4,128.8h26.3l13.1,17.1L337.7,163h-26.3l-13.1-17.1L311.4,128.8z M336.8,130h-24.5L300,145.9
								l12.3,15.9h24.5l12.3-15.9L336.8,130z"/>
						</g>
						<g>
							<polygon class="st6" points="300,112.6 312.9,129.4 299.8,146.5 273.5,146.5 260.5,129.7 261.9,129.1 274.4,145.3 
								298.9,145.3 311.1,129.4 298.6,113.2 							"/>
						</g>
						<g>
							<g>
								<polygon class="st6" points="236,128.8 261.8,128.8 275,145.9 261.8,163 236,163 236,161.8 260.9,161.8 273.2,145.9 
									260.9,130 236,130 								"/>
							</g>
						</g>
						<g>
							<g>
								<polygon class="st6" points="159.7,128.8 185.9,128.8 199.1,145.9 186.2,162.7 184.8,162.1 197.3,145.9 185,130 160.5,130 
									148.1,146.2 146.7,145.6 								"/>
							</g>
							<g>
								<polygon class="st6" points="121.7,112.3 148,112.3 160.9,129.1 159.6,129.7 147.1,113.5 122.6,113.5 110.4,129.4 
									122.8,145.6 121.5,146.2 108.6,129.4 								"/>
							</g>
							<g>
								<g>
									<polygon class="st6" points="83.8,128.8 110.1,128.8 123,145.6 121.6,146.2 109.2,130 84.7,130 72.4,145.9 84.9,162.1 
										83.6,162.7 70.6,145.9 									"/>
								</g>
								<g>
									<polygon class="st6" points="34.3,129.1 46.7,145.3 71.2,145.3 83.7,129.1 85.1,129.7 72.1,146.5 45.8,146.5 32.9,129.7 
																			"/>
								</g>
							</g>
							<g>
								<g>
									<path class="st6" d="M7.9,128.8h26.3l13.1,17.1L34.2,163H7.9l-13.1-17.1L7.9,128.8z M33.3,130H8.8l-12.3,15.9l12.3,15.9
										h24.5l12.3-15.9L33.3,130z"/>
								</g>
								<g>
									<path class="st6" d="M-30,112.3h26.3l13.1,17.1l-13.1,17.1H-30l-13.1-17.1L-30,112.3z M-4.6,113.5h-24.5l-12.3,15.9
										l12.3,15.9h24.5l12.3-15.9L-4.6,113.5z"/>
								</g>
							</g>
						</g>
					</g>
					<g>
						<g>
							<polygon class="st6" points="311.8,95.8 337.7,95.8 350.8,112.9 337.7,130 311.8,130 311.8,128.8 336.8,128.8 349,112.9 
								336.8,97 311.8,97 							"/>
						</g>
						<g>
							<g>
								<polygon class="st6" points="235.5,95.8 261.4,95.8 261.4,97 236.4,97 224.2,112.9 236.4,128.8 261.4,128.8 261.4,130 
									235.5,130 222.4,112.9 								"/>
							</g>
						</g>
						<g>
							<g>
								<polygon class="st6" points="186.2,96.1 199.1,112.9 185.9,130 159.7,130 146.7,113.2 148.1,112.6 160.5,128.8 185,128.8 
									197.3,112.9 184.8,96.7 								"/>
							</g>
							<g>
								<g>
									<polygon class="st6" points="110.3,96.1 123.2,112.9 110.1,130 83.8,130 70.9,113.2 72.2,112.6 84.7,128.8 109.2,128.8 
										121.4,112.9 108.9,96.7 									"/>
								</g>
							</g>
							<g>
								<g>
									<polygon class="st6" points="7.7,96.1 9,96.7 -3.5,112.9 8.8,128.8 33.7,128.8 33.7,130 7.9,130 -5.2,112.9 									"/>
								</g>
								<g>
									<polygon class="st6" points="-29.6,79.3 -3.7,79.3 9.4,96.4 -3.7,113.5 -29.6,113.5 -29.6,112.3 -4.6,112.3 7.6,96.4 
										-4.6,80.5 -29.6,80.5 									"/>
								</g>
							</g>
						</g>
					</g>
					<g>
						<g>
							<path class="st6" d="M311.4-3.1h26.3l13.1,17.1L337.7,31h-26.3l-13.1-17.1L311.4-3.1z M336.8-2h-24.5L300,13.9l12.3,15.9
								h24.5L349,13.9L336.8-2z"/>
						</g>
						<g>
							<path class="st6" d="M273.5-19.6h26.3l13.1,17.1l-13.1,17.1h-26.3L260.3-2.6L273.5-19.6z M298.9-18.5h-24.5L262.1-2.6
								l12.3,15.9h24.5l12.3-15.9L298.9-18.5z"/>
						</g>
						<g>
							<g>
								<path class="st6" d="M235.5-3.1h26.3L275,13.9L261.8,31h-26.3l-13.1-17.1L235.5-3.1z M260.9-2h-24.5l-12.3,15.9l12.3,15.9
									h24.5l12.3-15.9L260.9-2z"/>
							</g>
							<g>
								<path class="st6" d="M197.6-19.6h26.3L237-2.6l-13.1,17.1h-26.3L184.4-2.6L197.6-19.6z M223-18.5h-24.5L186.2-2.6l12.3,15.9
									H223l12.3-15.9L223-18.5z"/>
							</g>
						</g>
						<g>
							<g>
								<polygon class="st6" points="160.1,-3.1 185.9,-3.1 199.1,13.9 186.2,30.7 184.8,30.1 197.3,13.9 185,-2 160.1,-2 								
									"/>
							</g>
						</g>
					</g>
					<g>
						<g>
							<path class="st6" d="M311.4-36.1h26.3l13.1,17.1L337.7-2h-26.3l-13.1-17.1L311.4-36.1z M336.8-35h-24.5L300-19.1l12.3,15.9
								h24.5L349-19.1L336.8-35z"/>
						</g>
						<g>
							<polygon class="st6" points="261.9,-35.8 274.4,-19.6 298.9,-19.6 311.3,-35.8 312.7,-35.3 299.8,-18.5 273.5,-18.5 
								260.5,-35.3 							"/>
						</g>
						<g>
							<g>
								<path class="st6" d="M235.5-36.1h26.3L275-19.1L261.8-2h-26.3l-13.1-17.1L235.5-36.1z M260.9-35h-24.5l-12.3,15.9l12.3,15.9
									h24.5l12.3-15.9L260.9-35z"/>
							</g>
							<g>
								<polygon class="st6" points="186,-35.8 198.5,-19.6 223,-19.6 235.5,-35.8 236.8,-35.3 223.9,-18.5 197.6,-18.5 
									184.7,-35.3 								"/>
							</g>
						</g>
						<g>
							<g>
								<path class="st6" d="M159.7-36.1h26.3l13.1,17.1L185.9-2h-26.3l-13.1-17.1L159.7-36.1z M185-35h-24.5l-12.3,15.9l12.3,15.9
									H185l12.3-15.9L185-35z"/>
							</g>
						</g>
					</g>
				</g>
				<ellipse class="st6" cx="160.2" cy="63.3" rx="2.5" ry="1.9"/>
				<ellipse class="st6" cx="185.5" cy="96.7" rx="2.5" ry="1.9"/>
				<ellipse class="st6" cx="109.6" cy="96.1" rx="2.5" ry="1.9"/>
				<ellipse class="st6" cx="71.7" cy="113.1" rx="2.5" ry="1.9"/>
				<ellipse class="st6" cx="160.5" cy="162.4" rx="2.5" ry="1.9"/>
				<ellipse class="st6" cx="147.4" cy="178.6" rx="2.5" ry="1.9"/>
				<ellipse class="st6" cx="299" cy="112.9" rx="2.5" ry="1.9"/>
				<ellipse class="st6" cx="299" cy="47.1" rx="2.5" ry="1.9"/>
				<ellipse class="st6" cx="-29.6" cy="80" rx="2.5" ry="1.9"/>
			</g>
			<g>
				<ellipse class="st7" cx="20.7" cy="80" rx="2.5" ry="1.9"/>
				<g>
					<g>
						<g>
							<g>
								<polygon class="st7" points="361.7,194.8 388,194.8 400.9,211.6 399.6,212.2 387.1,196 362.6,196 350.4,211.9 362.8,228.1 
									361.5,228.7 348.6,211.9 								"/>
							</g>
							<g>
								<path class="st7" d="M323.8,178.3h26.3l13.1,17.1l-13.1,17.1h-26.3l-13.1-17.1L323.8,178.3z M349.2,179.5h-24.5l-12.3,15.9
									l12.3,15.9h24.5l12.3-15.9L349.2,179.5z"/>
							</g>
							<g>
								<g>
									<polygon class="st7" points="286.3,194.8 312.1,194.8 325.3,211.9 312.1,229 286.3,229 286.3,227.8 311.2,227.8 
										323.5,211.9 311.2,196 286.3,196 									"/>
								</g>
								<g>
									<polygon class="st7" points="247.9,178.3 274.2,178.3 287.1,195.1 285.8,195.7 273.3,179.5 248.8,179.5 236.6,195.4 
										249,211.6 247.7,212.2 234.8,195.4 									"/>
								</g>
							</g>
							<g>
								<g>
									<polygon class="st7" points="210,194.8 235.8,194.8 235.8,196 210.9,196 198.4,212.2 197.1,211.6 									"/>
								</g>
								<g>
									<polygon class="st7" points="198.6,178.6 211.5,195.4 198.3,212.5 172,212.5 159.1,195.7 160.5,195.1 172.9,211.3 
										197.4,211.3 209.7,195.4 197.2,179.2 									"/>
								</g>
								<g>
									<g>
										<polygon class="st7" points="134.1,194.8 160.4,194.8 173.5,211.9 160.6,228.7 159.3,228.1 171.7,211.9 159.5,196 
											135,196 122.5,212.2 121.2,211.6 										"/>
									</g>
									<g>
										<polygon class="st7" points="95.9,178.6 97.3,179.2 84.8,195.4 97.1,211.3 121.6,211.3 133.8,195.4 121.3,179.2 
											122.7,178.6 135.6,195.4 122.5,212.5 96.2,212.5 83,195.4 										"/>
									</g>
								</g>
								<g>
									<g>
										<polygon class="st7" points="58.2,194.8 84.5,194.8 97.4,211.6 96.1,212.2 83.6,196 59.1,196 46.9,211.9 59.3,228.1 
											58,228.7 45.1,211.9 										"/>
									</g>
									<g>
										<path class="st7" d="M20.3,178.3h26.3l13.1,17.1l-13.1,17.1H20.3L7.1,195.4L20.3,178.3z M45.7,179.5H21.2L8.9,195.4
											l12.3,15.9h24.5l12.3-15.9L45.7,179.5z"/>
									</g>
								</g>
							</g>
						</g>
						<g>
							<g>
								<path class="st7" d="M361.7,161.8H388l13.1,17.1L388,196h-26.3l-13.1-17.1L361.7,161.8z M387.1,163h-24.5l-12.3,15.9
									l12.3,15.9h24.5l12.3-15.9L387.1,163z"/>
							</g>
							<g>
								<polygon class="st7" points="323.8,145.3 350.1,145.3 363.2,162.4 350.3,179.2 349,178.6 361.4,162.4 349.2,146.5 
									324.7,146.5 312.2,162.7 310.9,162.1 								"/>
							</g>
							<g>
								<g>
									<polygon class="st7" points="285.8,161.8 311.7,161.8 311.7,163 286.7,163 274.5,178.9 286.7,194.8 311.7,194.8 311.7,196 
										285.8,196 272.7,178.9 									"/>
								</g>
								<g>
									<path class="st7" d="M247.9,145.3h26.3l13.1,17.1l-13.1,17.1h-26.3l-13.1-17.1L247.9,145.3z M273.3,146.5h-24.5l-12.3,15.9
										l12.3,15.9h24.5l12.3-15.9L273.3,146.5z"/>
								</g>
							</g>
							<g>
								<g>
									<polygon class="st7" points="172.5,145.3 198.3,145.3 211.3,162.1 209.9,162.7 197.4,146.5 172.5,146.5 									"/>
								</g>
								<g>
									<g>
										<polygon class="st7" points="133.9,162.1 135.2,162.7 122.7,178.9 135.2,195.1 133.9,195.7 121,178.9 										"/>
									</g>
								</g>
								<g>
									<g>
										<path class="st7" d="M58.2,161.8h26.3l13.1,17.1L84.5,196H58.2l-13.1-17.1L58.2,161.8z M83.6,163H59.1l-12.3,15.9
											l12.3,15.9h24.5l12.3-15.9L83.6,163z"/>
									</g>
									<g>
										<polygon class="st7" points="20.7,145.3 46.6,145.3 59.7,162.4 46.6,179.5 20.7,179.5 20.7,178.3 45.7,178.3 57.9,162.4 
											45.7,146.5 20.7,146.5 										"/>
									</g>
								</g>
							</g>
						</g>
						<g>
							<g>
								<path class="st7" d="M361.7,62.8H388l13.1,17.1L388,97h-26.3l-13.1-17.1L361.7,62.8z M387.1,64h-24.5l-12.3,15.9l12.3,15.9
									h24.5l12.3-15.9L387.1,64z"/>
							</g>
							<g>
								<polygon class="st7" points="350.3,46.6 363.2,63.4 350.1,80.5 323.8,80.5 310.9,63.7 312.2,63.1 324.7,79.3 349.2,79.3 
									361.4,63.4 349,47.2 								"/>
							</g>
							<g>
								<g>
									<path class="st7" d="M285.9,62.8h26.3l13.1,17.1L312.1,97h-26.3l-13.1-17.1L285.9,62.8z M311.2,64h-24.5l-12.3,15.9
										l12.3,15.9h24.5l12.3-15.9L311.2,64z"/>
								</g>
								<g>
									<polygon class="st7" points="247.9,46.3 274.2,46.3 287.3,63.4 274.4,80.2 273.1,79.6 285.6,63.4 273.3,47.5 248.8,47.5 
										236.3,63.7 235,63.1 									"/>
								</g>
							</g>
						</g>
						<g>
							<g>
								<polygon class="st7" points="362.2,29.8 388,29.8 401.2,46.9 388,64 362.2,64 362.2,62.8 387.1,62.8 399.4,46.9 387.1,31 
									362.2,31 								"/>
							</g>
							<g>
								<g>
									<polygon class="st7" points="236.5,30.1 249.4,46.9 236.3,64 210.4,64 210.4,62.8 235.4,62.8 247.6,46.9 235.1,30.7 
																			"/>
								</g>
							</g>
						</g>
						<g>
							<g>
								<path class="st7" d="M361.7,128.8H388l13.1,17.1L388,163h-26.3l-13.1-17.1L361.7,128.8z M387.1,130h-24.5l-12.3,15.9
									l12.3,15.9h24.5l12.3-15.9L387.1,130z"/>
							</g>
							<g>
								<polygon class="st7" points="350.3,112.6 363.2,129.4 350.1,146.5 323.8,146.5 310.9,129.7 312.2,129.1 324.7,145.3 
									349.2,145.3 361.4,129.4 349,113.2 								"/>
							</g>
							<g>
								<g>
									<polygon class="st7" points="286.3,128.8 312.1,128.8 325.3,145.9 312.1,163 286.3,163 286.3,161.8 311.2,161.8 
										323.5,145.9 311.2,130 286.3,130 									"/>
								</g>
							</g>
							<g>
								<g>
									<polygon class="st7" points="210,128.8 236.3,128.8 249.4,145.9 236.5,162.7 235.1,162.1 247.6,145.9 235.4,130 210.9,130 
										198.4,146.2 197.1,145.6 									"/>
								</g>
								<g>
									<polygon class="st7" points="172,112.3 198.3,112.3 211.3,129.1 209.9,129.7 197.4,113.5 172.9,113.5 160.7,129.4 
										173.2,145.6 171.8,146.2 158.9,129.4 									"/>
								</g>
								<g>
									<g>
										<polygon class="st7" points="134.1,128.8 160.4,128.8 173.3,145.6 172,146.2 159.5,130 135,130 122.7,145.9 135.2,162.1 
											133.9,162.7 121,145.9 										"/>
									</g>
									<g>
										<polygon class="st7" points="84.6,129.1 97.1,145.3 121.6,145.3 134,129.1 135.4,129.7 122.5,146.5 96.2,146.5 
											83.2,129.7 										"/>
									</g>
								</g>
								<g>
									<g>
										<path class="st7" d="M58.2,128.8h26.3l13.1,17.1L84.5,163H58.2l-13.1-17.1L58.2,128.8z M83.6,130H59.1l-12.3,15.9
											l12.3,15.9h24.5l12.3-15.9L83.6,130z"/>
									</g>
									<g>
										<path class="st7" d="M20.3,112.3h26.3l13.1,17.1l-13.1,17.1H20.3L7.1,129.4L20.3,112.3z M45.7,113.5H21.2L8.9,129.4
											l12.3,15.9h24.5l12.3-15.9L45.7,113.5z"/>
									</g>
								</g>
							</g>
						</g>
						<g>
							<g>
								<polygon class="st7" points="362.2,95.8 388,95.8 401.2,112.9 388,130 362.2,130 362.2,128.8 387.1,128.8 399.4,112.9 
									387.1,97 362.2,97 								"/>
							</g>
							<g>
								<g>
									<polygon class="st7" points="285.8,95.8 311.7,95.8 311.7,97 286.7,97 274.5,112.9 286.7,128.8 311.7,128.8 311.7,130 
										285.8,130 272.7,112.9 									"/>
								</g>
							</g>
							<g>
								<g>
									<polygon class="st7" points="236.5,96.1 249.4,112.9 236.3,130 210,130 197.1,113.2 198.4,112.6 210.9,128.8 235.4,128.8 
										247.6,112.9 235.1,96.7 									"/>
								</g>
								<g>
									<g>
										<polygon class="st7" points="160.6,96.1 173.5,112.9 160.4,130 134.1,130 121.2,113.2 122.5,112.6 135,128.8 159.5,128.8 
											171.7,112.9 159.3,96.7 										"/>
									</g>
								</g>
								<g>
									<g>
										<polygon class="st7" points="58,96.1 59.3,96.7 46.9,112.9 59.1,128.8 84.1,128.8 84.1,130 58.2,130 45.1,112.9 
																					"/>
									</g>
									<g>
										<polygon class="st7" points="20.7,79.3 46.6,79.3 59.7,96.4 46.6,113.5 20.7,113.5 20.7,112.3 45.7,112.3 57.9,96.4 
											45.7,80.5 20.7,80.5 										"/>
									</g>
								</g>
							</g>
						</g>
						<g>
							<g>
								<path class="st7" d="M361.7-3.1H388l13.1,17.1L388,31h-26.3l-13.1-17.1L361.7-3.1z M387.1-2h-24.5l-12.3,15.9l12.3,15.9
									h24.5l12.3-15.9L387.1-2z"/>
							</g>
							<g>
								<path class="st7" d="M323.8-19.6h26.3l13.1,17.1l-13.1,17.1h-26.3L310.6-2.6L323.8-19.6z M349.2-18.5h-24.5L312.4-2.6
									l12.3,15.9h24.5l12.3-15.9L349.2-18.5z"/>
							</g>
							<g>
								<g>
									<path class="st7" d="M285.9-3.1h26.3l13.1,17.1L312.1,31h-26.3l-13.1-17.1L285.9-3.1z M311.2-2h-24.5l-12.3,15.9l12.3,15.9
										h24.5l12.3-15.9L311.2-2z"/>
								</g>
								<g>
									<path class="st7" d="M247.9-19.6h26.3l13.1,17.1l-13.1,17.1h-26.3L234.8-2.6L247.9-19.6z M273.3-18.5h-24.5L236.6-2.6
										l12.3,15.9h24.5l12.3-15.9L273.3-18.5z"/>
								</g>
							</g>
							<g>
								<g>
									<polygon class="st7" points="210.4,-3.1 236.3,-3.1 249.4,13.9 236.5,30.7 235.1,30.1 247.6,13.9 235.4,-2 210.4,-2 
																			"/>
								</g>
							</g>
						</g>
						<g>
							<g>
								<path class="st7" d="M361.7-36.1H388l13.1,17.1L388-2h-26.3l-13.1-17.1L361.7-36.1z M387.1-35h-24.5l-12.3,15.9l12.3,15.9
									h24.5l12.3-15.9L387.1-35z"/>
							</g>
							<g>
								<polygon class="st7" points="312.2,-35.8 324.7,-19.6 349.2,-19.6 361.7,-35.8 363,-35.3 350.1,-18.5 323.8,-18.5 
									310.9,-35.3 								"/>
							</g>
							<g>
								<g>
									<path class="st7" d="M285.9-36.1h26.3l13.1,17.1L312.1-2h-26.3l-13.1-17.1L285.9-36.1z M311.2-35h-24.5l-12.3,15.9
										l12.3,15.9h24.5l12.3-15.9L311.2-35z"/>
								</g>
								<g>
									<polygon class="st7" points="236.3,-35.8 248.8,-19.6 273.3,-19.6 285.8,-35.8 287.1,-35.3 274.2,-18.5 247.9,-18.5 
										235,-35.3 									"/>
								</g>
							</g>
							<g>
								<g>
									<path class="st7" d="M210-36.1h26.3l13.1,17.1L236.3-2H210l-13.1-17.1L210-36.1z M235.4-35h-24.5l-12.3,15.9l12.3,15.9
										h24.5l12.3-15.9L235.4-35z"/>
								</g>
							</g>
						</g>
					</g>
					<ellipse class="st7" cx="210.4" cy="63.3" rx="2.5" ry="1.9"/>
					<ellipse class="st7" cx="160.1" cy="96.7" rx="2.5" ry="1.9"/>
					<ellipse class="st7" cx="210.3" cy="162.4" rx="2.5" ry="1.9"/>
				</g>
			</g>
		</g>
	</g>
	<g class="st1">
		<g>
			<g>
				<g>
					<path class="st8" d="M221.8,128.9c0,4.9-5.3,8.9-11.9,8.9c-6.6,0-11.9-4-11.9-8.9c0-4.9,5.3-8.9,11.9-8.9
						C216.5,120,221.8,124,221.8,128.9z"/>
				</g>
				<g>
					<path class="st8" d="M211.2,131.2h-2.4c-3.8,0-6.8-2.3-6.8-5.1v-7c0-2.8,3.1-5.1,6.8-5.1h2.4c3.8,0,6.8,2.3,6.8,5.1v7
						C218,128.9,214.9,131.2,211.2,131.2z M208.7,115.9c-2.3,0-4.3,1.4-4.3,3.2v7c0,1.8,1.9,3.2,4.3,3.2h2.4c2.3,0,4.3-1.4,4.3-3.2
						v-7c0-1.8-1.9-3.2-4.3-3.2H208.7z"/>
				</g>
				<g>
					<path class="st9" d="M219.3,128.9c0,3.9-4.2,7-9.4,7c-5.2,0-9.4-3.2-9.4-7c0-3.9,4.2-7,9.4-7
						C215.1,121.9,219.3,125,219.3,128.9z"/>
				</g>
				<path class="st8" d="M211,127.7c0.7-0.3,1.2-0.8,1.2-1.4c0-0.9-1-1.6-2.2-1.6c-1.2,0-2.2,0.7-2.2,1.6c0,0.6,0.5,1.2,1.2,1.4
					l-2,5.5h2.9h0.3h2.9L211,127.7z"/>
			</g>
			<g>
				<g>
					<path class="st10" d="M261.1,72.3c-6.3,3-11.9,0-11.9,0s-5.6,3-11.9,0c0,0-0.8,13.9,11.9,18.4
						C261.8,86.2,261.1,72.3,261.1,72.3z"/>
					<g>
						<path class="st8" d="M260.8,72c-3.5,1.5-7.9,1.8-11.3,0c-0.2-0.1-0.4-0.1-0.6,0c-3.4,1.8-7.8,1.5-11.3,0
							c-0.4-0.2-0.9,0.1-0.9,0.4c-0.1,2.7,0.5,5.5,1.4,8.1c0.8,2.2,2.1,4.4,3.9,6.3c1,1,2.1,1.9,3.4,2.7c0.9,0.5,2.6,1.7,3.8,1.7
							c1,0,2.6-1,3.3-1.4c1.3-0.8,2.5-1.6,3.5-2.6c1.9-1.9,3.2-4,4.1-6.2c1.1-2.7,1.7-5.7,1.5-8.5c0-0.6-1.2-0.6-1.2,0
							c0.3,6.6-2.8,14.5-11,17.8c-0.9,0.4-3.4-1.5-4-1.8c-1.2-0.8-2.1-1.7-3-2.6c-1.6-1.8-2.7-4-3.4-6.1c-0.8-2.3-1.2-4.8-1.1-7.2
							c-0.3,0.1-0.6,0.3-0.9,0.4c3.8,1.7,8.6,1.9,12.4,0c-0.3,0.2-0.8-0.1-0.3,0.1c0.3,0.2,0.7,0.3,1,0.4c0.9,0.3,1.9,0.6,3,0.7
							c2.9,0.4,5.7-0.2,8.2-1.3C262.1,72.4,261.5,71.7,260.8,72z"/>
					</g>
				</g>
				<g>
					<g>
						<path class="st8" d="M254.1,82.9c0,0.9-1,1.7-2.2,1.7h-5.2c-1.2,0-2.2-0.7-2.2-1.7v-1.9c0-0.9,1-1.7,2.2-1.7h5.2
							c1.2,0,2.2,0.7,2.2,1.7V82.9z"/>
						<path class="st10" d="M250.3,81.6c0-0.4-0.5-0.8-1-0.8c-0.6,0-1,0.4-1,0.8c0,0.2,0.1,0.4,0.3,0.6l-0.4,1.1h2.3l-0.4-1.1
							C250.1,82,250.3,81.8,250.3,81.6z"/>
					</g>
					<g>
						<path class="st8" d="M252.2,79.7h-0.9v-2c0-0.7-0.8-1.3-1.8-1.3h-0.6c-1,0-1.8,0.6-1.8,1.3v2h-0.9v-2c0-1.1,1.2-2,2.7-2h0.6
							c1.5,0,2.7,0.9,2.7,2V79.7z"/>
					</g>
				</g>
			</g>
			<g>
				<g>
					<g>
						<path class="st11" d="M132.4,107.5c-9,0.1-11.6-4.4-11.6-4.4s-2.7,4.5-11.6,4.4c0,0-0.6,11,11.6,13.9
							C133,118.5,132.4,107.5,132.4,107.5z"/>
					</g>
					<path class="st8" d="M132.9,107.5c0-0.1,0-0.1-0.1-0.2c-0.1-0.1-0.2-0.2-0.4-0.2c-4.2,0-9.3-1.1-11.2-4.3
						c-0.2-0.3-0.8-0.3-0.9,0c-1.9,3.1-7,4.2-11.2,4.3c-0.3,0-0.5,0.2-0.5,0.4c-0.1,2.2,0.5,4.5,1.5,6.5c0.8,1.7,2,3.2,3.6,4.5
						c0.9,0.7,1.9,1.3,3,1.9c1,0.5,2.9,1.4,4.1,1.4c1.1,0,2.7-0.8,3.7-1.2c1.1-0.5,2.2-1.1,3.1-1.8c1.8-1.3,3-3,3.9-4.8
						C132.4,112,133,109.7,132.9,107.5z M121.1,120.9c-1.1,0.3-3-0.7-3.9-1.1c-1.2-0.5-2.2-1.2-3.1-2c-1.6-1.3-2.7-3-3.4-4.7
						c-0.7-1.6-1.1-3.4-1.1-5.1c4.1-0.1,8.9-1.2,11.1-4c2.2,2.8,7,3.9,11.1,4C132,113.3,128.2,118.9,121.1,120.9z"/>
				</g>
				<g>
					<g>
						<path class="st8" d="M126.3,115.4c0,1.1-1.2,1.9-2.6,1.9h-6c-1.4,0-2.6-0.9-2.6-1.9v-2.2c0-1.1,1.2-1.9,2.6-1.9h6
							c1.4,0,2.6,0.9,2.6,1.9V115.4z"/>
						<path class="st11" d="M121.9,113.9c0-0.5-0.5-0.9-1.2-0.9c-0.7,0-1.2,0.4-1.2,0.9c0,0.3,0.1,0.5,0.4,0.7l-0.5,1.2h2.6
							l-0.5-1.2C121.8,114.4,121.9,114.1,121.9,113.9z"/>
					</g>
					<g>
						<path class="st8" d="M124.1,111.7h-1v-2.3c0-0.8-0.9-1.5-2-1.5h-0.6c-1.1,0-2,0.7-2,1.5v2.3h-1v-2.3c0-1.3,1.4-2.3,3.1-2.3
							h0.6c1.7,0,3.1,1,3.1,2.3V111.7z"/>
					</g>
				</g>
			</g>
			<g>
				<g>
					<path class="st8" d="M275.2,31c0,4.2-4.5,7.6-10.1,7.6c-5.6,0-10.1-3.4-10.1-7.6s4.5-7.6,10.1-7.6
						C270.7,23.4,275.2,26.8,275.2,31z"/>
				</g>
				<g>
					<path class="st8" d="M266.1,32.9H264c-3.2,0-5.8-1.9-5.8-4.3v-5.9c0-2.4,2.6-4.3,5.8-4.3h2.1c3.2,0,5.8,1.9,5.8,4.3v5.9
						C271.9,30.9,269.3,32.9,266.1,32.9z M264,19.9c-2,0-3.6,1.2-3.6,2.7v5.9c0,1.5,1.6,2.7,3.6,2.7h2.1c2,0,3.6-1.2,3.6-2.7v-5.9
						c0-1.5-1.6-2.7-3.6-2.7H264z"/>
				</g>
				<g>
					<path class="st11" d="M273.1,31c0,3.3-3.6,6-8,6c-4.4,0-8-2.7-8-6s3.6-6,8-6C269.5,25,273.1,27.6,273.1,31z"/>
				</g>
				<path class="st8" d="M265.9,29.9c0.6-0.2,1-0.7,1-1.2c0-0.8-0.8-1.4-1.8-1.4c-1,0-1.8,0.6-1.8,1.4c0,0.5,0.4,1,1,1.2l-1.7,4.6
					h2.4h0.3h2.4L265.9,29.9z"/>
			</g>
			<g>
				<g>
					<g>
						<path class="st12" d="M323.8,56.4c-10.3,0.1-13.4-5.1-13.4-5.1s-3.1,5.2-13.4,5.1c0,0-0.7,12.7,13.4,16
							C324.5,69.1,323.8,56.4,323.8,56.4z"/>
					</g>
					<path class="st8" d="M324.4,56.4c0-0.1,0-0.2-0.1-0.2c-0.1-0.1-0.3-0.2-0.5-0.2c-4.8,0-10.7-1.3-12.8-4.9
						c-0.2-0.3-0.9-0.3-1.1,0c-2.2,3.6-8.1,4.9-12.8,4.9c-0.3,0-0.6,0.2-0.6,0.5c-0.1,2.5,0.6,5.1,1.7,7.5c0.9,1.9,2.3,3.7,4.1,5.2
						c1,0.8,2.2,1.5,3.4,2.1c1.1,0.6,3.3,1.6,4.7,1.6c1.3,0,3.1-0.9,4.2-1.4c1.3-0.6,2.5-1.3,3.6-2.1c2.1-1.5,3.5-3.5,4.5-5.5
						C323.8,61.6,324.5,58.9,324.4,56.4z M310.8,71.8c-1.3,0.4-3.5-0.8-4.5-1.3c-1.3-0.6-2.5-1.4-3.5-2.3c-1.8-1.5-3.1-3.5-3.9-5.4
						c-0.8-1.9-1.3-3.9-1.2-5.9c4.7-0.1,10.2-1.4,12.8-4.6c2.6,3.2,8.1,4.5,12.8,4.6C323.3,63.1,319,69.5,310.8,71.8z"/>
				</g>
				<g>
					<g>
						<path class="st8" d="M316.8,65.5c0,1.2-1.3,2.2-2.9,2.2h-6.9c-1.6,0-2.9-1-2.9-2.2V63c0-1.2,1.3-2.2,2.9-2.2h6.9
							c1.6,0,2.9,1,2.9,2.2V65.5z"/>
						<path class="st12" d="M311.8,63.7c0-0.6-0.6-1-1.4-1c-0.8,0-1.4,0.5-1.4,1c0,0.3,0.2,0.6,0.4,0.8l-0.6,1.4h3l-0.6-1.4
							C311.6,64.3,311.8,64,311.8,63.7z"/>
					</g>
					<g>
						<path class="st8" d="M314.3,61.2h-1.2v-2.6c0-1-1.1-1.8-2.3-1.8H310c-1.3,0-2.3,0.8-2.3,1.8v2.6h-1.2v-2.6
							c0-1.5,1.6-2.6,3.5-2.6h0.7c1.9,0,3.5,1.2,3.5,2.6V61.2z"/>
					</g>
				</g>
			</g>
			<g>
				<g>
					<path class="st11" d="M311.9,135.9c-6.7,3.2-12.6,0-12.6,0s-5.9,3.2-12.6,0c0,0-0.8,14.7,12.6,19.5
						C312.7,150.7,311.9,135.9,311.9,135.9z"/>
					<g>
						<path class="st8" d="M311.6,135.5c-3.7,1.6-8.3,1.9-11.9,0c-0.2-0.1-0.5-0.1-0.6,0c-3.6,1.9-8.3,1.6-11.9,0
							c-0.4-0.2-0.9,0.1-0.9,0.4c-0.1,2.9,0.5,5.9,1.5,8.6c0.9,2.4,2.2,4.6,4.1,6.6c1,1.1,2.2,2,3.6,2.9c0.9,0.6,2.8,1.8,4,1.8
							c1.1,0,2.7-1.1,3.5-1.5c1.4-0.8,2.7-1.7,3.7-2.8c2-2,3.3-4.2,4.3-6.6c1.2-2.9,1.8-6,1.6-9c0-0.6-1.3-0.6-1.3,0
							c0.4,7-3,15.4-11.7,18.9c-0.9,0.4-3.6-1.6-4.2-2c-1.2-0.8-2.2-1.8-3.2-2.8c-1.7-1.9-2.8-4.2-3.6-6.5c-0.8-2.5-1.3-5.1-1.2-7.7
							c-0.3,0.1-0.6,0.3-0.9,0.4c4.1,1.8,9.1,2.1,13.2,0c-0.3,0.2-0.8-0.1-0.3,0.1c0.4,0.2,0.7,0.3,1.1,0.4c1,0.4,2.1,0.6,3.1,0.8
							c3.1,0.5,6.1-0.2,8.7-1.3C312.9,136,312.3,135.2,311.6,135.5z"/>
					</g>
				</g>
				<g>
					<g>
						<path class="st8" d="M304.4,147.2c0,1-1.1,1.8-2.4,1.8h-5.5c-1.3,0-2.4-0.8-2.4-1.8v-2c0-1,1.1-1.8,2.4-1.8h5.5
							c1.3,0,2.4,0.8,2.4,1.8V147.2z"/>
						<path class="st11" d="M300.4,145.8c0-0.5-0.5-0.8-1.1-0.8c-0.6,0-1.1,0.4-1.1,0.8c0,0.2,0.1,0.4,0.3,0.6l-0.4,1.1h2.4
							l-0.4-1.1C300.3,146.2,300.4,146,300.4,145.8z"/>
					</g>
					<g>
						<path class="st8" d="M302.4,143.7h-0.9v-2.1c0-0.8-0.8-1.4-1.9-1.4H299c-1,0-1.9,0.6-1.9,1.4v2.1h-0.9v-2.1
							c0-1.2,1.3-2.1,2.8-2.1h0.6c1.6,0,2.8,0.9,2.8,2.1V143.7z"/>
					</g>
				</g>
			</g>
			<g>
				<g>
					<g>
						<path class="st10" d="M237.7,172.4c-10.6,0.1-13.8-5.3-13.8-5.3s-3.2,5.4-13.8,5.3c0,0-0.8,13,13.8,16.4
							C238.5,185.4,237.7,172.4,237.7,172.4z"/>
					</g>
					<path class="st8" d="M238.3,172.4c0-0.1,0-0.2-0.1-0.2c-0.1-0.1-0.3-0.2-0.5-0.2c-4.9,0-11-1.3-13.2-5c-0.2-0.3-0.9-0.3-1.1,0
						c-2.2,3.7-8.3,5-13.2,5c-0.4,0-0.6,0.2-0.6,0.5c-0.1,2.6,0.6,5.3,1.8,7.7c0.9,2,2.4,3.8,4.3,5.3c1,0.9,2.3,1.6,3.5,2.2
						c1.2,0.6,3.4,1.6,4.8,1.6c1.3,0,3.2-0.9,4.3-1.4c1.3-0.6,2.6-1.3,3.7-2.2c2.1-1.6,3.6-3.6,4.6-5.6
						C237.8,177.7,238.5,174.9,238.3,172.4z M224.4,188.2c-1.3,0.4-3.6-0.8-4.7-1.4c-1.4-0.6-2.6-1.5-3.6-2.4
						c-1.9-1.6-3.2-3.6-4-5.6c-0.8-1.9-1.3-4-1.3-6c4.8-0.1,10.5-1.5,13.1-4.7c2.6,3.3,8.3,4.6,13.1,4.7
						C237.2,179.3,232.8,185.9,224.4,188.2z"/>
				</g>
				<g>
					<g>
						<path class="st8" d="M230.5,181.7c0,1.2-1.4,2.3-3,2.3h-7.1c-1.7,0-3-1-3-2.3v-2.6c0-1.2,1.4-2.3,3-2.3h7.1c1.7,0,3,1,3,2.3
							V181.7z"/>
						<path class="st10" d="M225.4,179.9c0-0.6-0.6-1.1-1.4-1.1c-0.8,0-1.4,0.5-1.4,1.1c0,0.3,0.2,0.6,0.4,0.8l-0.6,1.5h3.1
							l-0.6-1.5C225.2,180.5,225.4,180.2,225.4,179.9z"/>
					</g>
					<g>
						<path class="st8" d="M228,177.3h-1.2v-2.7c0-1-1.1-1.8-2.4-1.8h-0.8c-1.3,0-2.4,0.8-2.4,1.8v2.7H220v-2.7
							c0-1.5,1.6-2.7,3.6-2.7h0.8c2,0,3.6,1.2,3.6,2.7V177.3z"/>
					</g>
				</g>
			</g>
			<g>
				<g>
					<path class="st8" d="M112.7,174.7c0,5.4-5.9,9.8-13.1,9.8c-7.2,0-13.1-4.4-13.1-9.8c0-5.4,5.9-9.8,13.1-9.8
						C106.8,164.9,112.7,169.3,112.7,174.7z"/>
				</g>
				<g>
					<path class="st8" d="M101,177.2h-2.7c-4.1,0-7.5-2.5-7.5-5.6v-7.7c0-3.1,3.4-5.6,7.5-5.6h2.7c4.1,0,7.5,2.5,7.5,5.6v7.7
						C108.5,174.7,105.1,177.2,101,177.2z M98.3,160.4c-2.6,0-4.7,1.6-4.7,3.5v7.7c0,1.9,2.1,3.5,4.7,3.5h2.7c2.6,0,4.7-1.6,4.7-3.5
						v-7.7c0-1.9-2.1-3.5-4.7-3.5H98.3z"/>
				</g>
				<g>
					<path class="st12" d="M109.9,174.7c0,4.3-4.6,7.7-10.3,7.7c-5.7,0-10.3-3.5-10.3-7.7c0-4.3,4.6-7.7,10.3-7.7
						C105.3,167,109.9,170.5,109.9,174.7z"/>
				</g>
				<path class="st8" d="M100.7,173.4c0.8-0.3,1.3-0.9,1.3-1.6c0-1-1.1-1.8-2.4-1.8c-1.3,0-2.4,0.8-2.4,1.8c0,0.7,0.5,1.3,1.3,1.6
					l-2.2,6h3.2h0.3h3.2L100.7,173.4z"/>
			</g>
			<g>
				<g>
					<path class="st8" d="M375.2,28.6c0,4.9-5.3,8.9-11.9,8.9c-6.6,0-11.9-4-11.9-8.9c0-4.9,5.3-8.9,11.9-8.9
						C369.8,19.7,375.2,23.7,375.2,28.6z"/>
				</g>
				<g>
					<path class="st8" d="M364.5,30.8h-2.4c-3.8,0-6.8-2.3-6.8-5.1v-7c0-2.8,3.1-5.1,6.8-5.1h2.4c3.8,0,6.8,2.3,6.8,5.1v7
						C371.3,28.5,368.3,30.8,364.5,30.8z M362.1,15.6c-2.3,0-4.3,1.4-4.3,3.2v7c0,1.8,1.9,3.2,4.3,3.2h2.4c2.3,0,4.3-1.4,4.3-3.2v-7
						c0-1.8-1.9-3.2-4.3-3.2H362.1z"/>
				</g>
				<g>
					<path class="st9" d="M372.7,28.6c0,3.9-4.2,7-9.4,7c-5.2,0-9.4-3.2-9.4-7c0-3.9,4.2-7,9.4-7C368.5,21.5,372.7,24.7,372.7,28.6z
						"/>
				</g>
				<path class="st8" d="M364.3,27.4c0.7-0.3,1.2-0.8,1.2-1.4c0-0.9-1-1.6-2.2-1.6c-1.2,0-2.2,0.7-2.2,1.6c0,0.6,0.5,1.2,1.2,1.4
					l-2,5.5h2.9h0.3h2.9L364.3,27.4z"/>
			</g>
			<g>
				<g>
					<path class="st10" d="M56.4,70.6c-6.3,3-11.9,0-11.9,0s-5.6,3-11.9,0c0,0-0.8,13.9,11.9,18.4C57.2,84.5,56.4,70.6,56.4,70.6z"
						/>
					<g>
						<path class="st8" d="M56.1,70.2c-3.5,1.5-7.9,1.8-11.3,0c-0.2-0.1-0.4-0.1-0.6,0c-3.4,1.8-7.8,1.5-11.3,0
							c-0.4-0.2-0.9,0.1-0.9,0.4c-0.1,2.7,0.5,5.5,1.4,8.1c0.8,2.2,2.1,4.4,3.9,6.3c1,1,2.1,1.9,3.4,2.7c0.9,0.5,2.6,1.7,3.8,1.7
							c1,0,2.6-1,3.3-1.4c1.3-0.8,2.5-1.6,3.5-2.6c1.9-1.9,3.2-4,4.1-6.2c1.1-2.7,1.7-5.7,1.5-8.5c0-0.6-1.2-0.6-1.2,0
							c0.3,6.6-2.8,14.5-11,17.8c-0.9,0.4-3.4-1.5-4-1.8c-1.2-0.8-2.1-1.7-3-2.6c-1.6-1.8-2.7-4-3.4-6.1c-0.8-2.3-1.2-4.8-1.1-7.2
							c-0.3,0.1-0.6,0.3-0.9,0.4c3.8,1.7,8.6,1.9,12.4,0c-0.3,0.2-0.8-0.1-0.3,0.1c0.3,0.2,0.7,0.3,1,0.4c0.9,0.3,1.9,0.6,3,0.7
							c2.9,0.4,5.7-0.2,8.2-1.3C57.4,70.7,56.8,69.9,56.1,70.2z"/>
					</g>
				</g>
				<g>
					<g>
						<path class="st8" d="M49.4,81.2c0,0.9-1,1.7-2.2,1.7H42c-1.2,0-2.2-0.7-2.2-1.7v-1.9c0-0.9,1-1.7,2.2-1.7h5.2
							c1.2,0,2.2,0.7,2.2,1.7V81.2z"/>
						<path class="st10" d="M45.6,79.9c0-0.4-0.5-0.8-1-0.8c-0.6,0-1,0.4-1,0.8c0,0.2,0.1,0.4,0.3,0.6l-0.4,1.1h2.3l-0.4-1.1
							C45.5,80.3,45.6,80.1,45.6,79.9z"/>
					</g>
					<g>
						<path class="st8" d="M47.5,78h-0.9v-2c0-0.7-0.8-1.3-1.8-1.3h-0.6c-1,0-1.8,0.6-1.8,1.3v2h-0.9v-2c0-1.1,1.2-2,2.7-2h0.6
							c1.5,0,2.7,0.9,2.7,2V78z"/>
					</g>
				</g>
			</g>
			<g>
				<g>
					<path class="st8" d="M388.2,149c0,5.4-5.9,9.8-13.1,9.8c-7.2,0-13.1-4.4-13.1-9.8c0-5.4,5.9-9.8,13.1-9.8
						C382.4,139.2,388.2,143.6,388.2,149z"/>
				</g>
				<g>
					<path class="st8" d="M376.5,151.4h-2.7c-4.1,0-7.5-2.5-7.5-5.6v-7.7c0-3.1,3.4-5.6,7.5-5.6h2.7c4.1,0,7.5,2.5,7.5,5.6v7.7
						C384,148.9,380.6,151.4,376.5,151.4z M373.8,134.6c-2.6,0-4.7,1.6-4.7,3.5v7.7c0,1.9,2.1,3.5,4.7,3.5h2.7
						c2.6,0,4.7-1.6,4.7-3.5v-7.7c0-1.9-2.1-3.5-4.7-3.5H373.8z"/>
				</g>
				<g>
					<path class="st12" d="M385.5,149c0,4.3-4.6,7.7-10.3,7.7c-5.7,0-10.3-3.5-10.3-7.7c0-4.3,4.6-7.7,10.3-7.7
						C380.9,141.2,385.5,144.7,385.5,149z"/>
				</g>
				<path class="st8" d="M376.3,147.7c0.8-0.3,1.3-0.9,1.3-1.6c0-1-1.1-1.8-2.4-1.8c-1.3,0-2.4,0.8-2.4,1.8c0,0.7,0.5,1.3,1.3,1.6
					l-2.2,6h3.2h0.3h3.2L376.3,147.7z"/>
			</g>
			<g>
				<g>
					<path class="st8" d="M57.2,144.5c0,4.2-4.5,7.6-10.1,7.6c-5.6,0-10.1-3.4-10.1-7.6c0-4.2,4.5-7.6,10.1-7.6
						C52.7,137,57.2,140.4,57.2,144.5z"/>
				</g>
				<g>
					<path class="st8" d="M48.2,146.5h-2.1c-3.2,0-5.8-1.9-5.8-4.3v-5.9c0-2.4,2.6-4.3,5.8-4.3h2.1c3.2,0,5.8,1.9,5.8,4.3v5.9
						C54,144.5,51.4,146.5,48.2,146.5z M46.1,133.5c-2,0-3.6,1.2-3.6,2.7v5.9c0,1.5,1.6,2.7,3.6,2.7h2.1c2,0,3.6-1.2,3.6-2.7v-5.9
						c0-1.5-1.6-2.7-3.6-2.7H46.1z"/>
				</g>
				<g>
					<path class="st11" d="M55.1,144.5c0,3.3-3.6,6-8,6c-4.4,0-8-2.7-8-6s3.6-6,8-6C51.5,138.6,55.1,141.2,55.1,144.5z"/>
				</g>
				<path class="st8" d="M48,143.5c0.6-0.2,1-0.7,1-1.2c0-0.8-0.8-1.4-1.8-1.4c-1,0-1.8,0.6-1.8,1.4c0,0.5,0.4,1,1,1.2l-1.7,4.6H47
					h0.3h2.4L48,143.5z"/>
			</g>
			<g>
				<g>
					<g>
						<path class="st10" d="M388.9,75.9c-10.6,0.1-13.8-5.3-13.8-5.3s-3.2,5.4-13.8,5.3c0,0-0.8,13,13.8,16.4
							C389.7,89,388.9,75.9,388.9,75.9z"/>
					</g>
					<path class="st8" d="M389.5,75.9c0-0.1,0-0.2-0.1-0.2c-0.1-0.1-0.3-0.2-0.5-0.2c-4.9,0-11-1.3-13.2-5c-0.2-0.3-0.9-0.3-1.1,0
						c-2.2,3.7-8.3,5-13.2,5c-0.4,0-0.6,0.2-0.6,0.5c-0.1,2.6,0.6,5.3,1.8,7.7c0.9,2,2.4,3.8,4.3,5.3c1,0.9,2.3,1.6,3.5,2.2
						c1.2,0.6,3.4,1.6,4.8,1.6c1.3,0,3.2-0.9,4.3-1.4c1.3-0.6,2.6-1.3,3.7-2.2c2.1-1.6,3.6-3.6,4.6-5.6
						C389,81.3,389.7,78.5,389.5,75.9z M375.6,91.7c-1.3,0.4-3.6-0.8-4.7-1.4c-1.4-0.6-2.6-1.5-3.6-2.4c-1.9-1.6-3.2-3.6-4-5.6
						c-0.8-1.9-1.3-4-1.3-6c4.8-0.1,10.5-1.5,13.1-4.7c2.6,3.3,8.3,4.6,13.1,4.7C388.4,82.9,384,89.5,375.6,91.7z"/>
				</g>
				<g>
					<g>
						<path class="st8" d="M381.7,85.3c0,1.2-1.4,2.3-3,2.3h-7.1c-1.7,0-3-1-3-2.3v-2.6c0-1.2,1.4-2.3,3-2.3h7.1c1.7,0,3,1,3,2.3
							V85.3z"/>
						<path class="st10" d="M376.6,83.5c0-0.6-0.6-1.1-1.4-1.1c-0.8,0-1.4,0.5-1.4,1.1c0,0.3,0.2,0.6,0.4,0.8l-0.6,1.5h3.1l-0.6-1.5
							C376.4,84.1,376.6,83.8,376.6,83.5z"/>
					</g>
					<g>
						<path class="st8" d="M379.2,80.9H378v-2.7c0-1-1.1-1.8-2.4-1.8h-0.8c-1.3,0-2.4,0.8-2.4,1.8v2.7h-1.2v-2.7
							c0-1.5,1.6-2.7,3.6-2.7h0.8c2,0,3.6,1.2,3.6,2.7V80.9z"/>
					</g>
				</g>
			</g>
		</g>
		<g>
			<g>
				<path class="st13" d="M159.3,89.1c0,1-1.1,1.9-2.5,1.9c-1.4,0-2.5-0.8-2.5-1.9c0-1,1.1-1.9,2.5-1.9
					C158.1,87.2,159.3,88,159.3,89.1z"/>
				<path class="st13" d="M152.5,87.2c0.2-0.1-0.4,0.2-0.1,0.1c0.2-0.1,0.4-0.2,0.6-0.3c0.6-0.3,1.2-0.5,1.9-0.6
					c2.4-0.5,4.6,0,6.6,1.1c1.8,1,3.5-1.3,1.7-2.2c-4-2.1-9.4-2.2-13.2,0.2C148.3,86.5,150.8,88.3,152.5,87.2L152.5,87.2z"/>
				<path class="st13" d="M149.8,83.8c4.1-1.9,9.7-2,13.9,0c1.9,0.9,3.6-1.3,1.7-2.2c-5.2-2.5-12.2-2.4-17.4,0
					C146.2,82.5,147.9,84.7,149.8,83.8L149.8,83.8z"/>
			</g>
			<g>
				<g>
					<path class="st13" d="M210.9,23.7c5,0,9.1,3,9.1,6.8c0,1.1-0.3,2.2-1,3.1c-0.1,0.1-0.8,1.1-2.4,1.5c-0.2,0-0.4,0-0.5,0
						c-0.7,0-1.2-0.2-1.5-0.5c-0.3-0.3-0.4-0.6-0.4-0.9V33c-0.9,0.7-2,1.2-3.3,1.2c-2.6,0-4.6-1.7-4.6-3.7c0-2,2.1-3.6,4.6-3.6
						c2.6,0,4.6,1.7,4.6,3.6v0.2v0.1v2.9h0c0,0.1,0.1,0.3,0.2,0.4c0.1,0.1,0.2,0.1,0.5,0.1h0.2c0.8-0.1,1.4-0.8,1.5-1
						c0.6-0.8,0.9-1.7,0.9-2.7c0-3.2-3.5-5.8-7.8-5.8c-4.3,0-7.8,2.6-7.8,5.8c0,3.2,3.5,5.9,7.8,5.9c0.7,0,1.3,0,1.9-0.2
						c0.3-0.1,0.7,0.1,0.7,0.3c0.1,0.3-0.1,0.5-0.4,0.6c-0.7,0.1-1.4,0.2-2.2,0.2c-5,0-9.1-3-9.1-6.8
						C201.8,26.8,205.8,23.7,210.9,23.7z M210.9,33.2c1.8,0,3.3-1.2,3.3-2.7c0-1.5-1.5-2.7-3.3-2.7c-1.8,0-3.3,1.2-3.3,2.7
						C207.6,32,209,33.2,210.9,33.2z"/>
				</g>
				<g>
					<g>
						<path class="st13" d="M178,180.3l-3.6-2.6c-0.1-0.1-0.2-0.2-0.3-0.2c0.7-0.9,1.1-1.9,1.1-3c0-3.3-3.6-6-7.9-6
							c-4.4,0-7.9,2.7-7.9,6c0,3.3,3.6,6,7.9,6c1.7,0,3.2-0.4,4.5-1c0,0,0,0,0,0l3.6,2.6c0.6,0.5,1.7,0.6,2.5,0.1
							C178.5,181.7,178.6,180.9,178,180.3z M167.2,178.3c-2.8,0-5.1-1.7-5.1-3.8c0-2.1,2.3-3.8,5.1-3.8c2.8,0,5.1,1.7,5.1,3.8
							C172.3,176.6,170,178.3,167.2,178.3z"/>
					</g>
					<path class="st13" d="M218.1,94.3c0.2-0.4,0.3-0.9,0.3-1.3c0-2.1-2.3-3.9-5.1-3.9c-2.1,0-3.9,1-4.7,2.3
						c-0.4-0.1-0.9-0.2-1.3-0.2c-2.1,0-3.8,1.2-3.9,2.7c-1.7,0.3-3,1.4-3,2.7c0,1.5,1.9,2.8,4.2,2.8h11.5c2.3,0,4.2-1.3,4.2-2.8
						C220.1,95.7,219.3,94.8,218.1,94.3z"/>
					<path class="st13" d="M327.2,112.8c0,0.6-0.5,1.2-1.1,1.2h-10.8c-0.6,0-1.1-0.5-1.1-1.2V106c0-0.6,0.5-1.2,1.1-1.2h2.2
						c0.6,0,1.5,0.2,2,0.4c0.5,0.2,1.4,0.4,2,0.4h4.7c0.6,0,1.1,0.5,1.1,1.2V112.8z"/>
					<path class="st13" d="M260.8,106.5c-4.3,0-7.8,2.6-7.8,5.8c0,3.2,3.5,5.8,7.8,5.8v2c0,0,2.4-0.3,2.7-2.4c2.9-0.8,5-3,5-5.4
						C268.6,109.1,265.1,106.5,260.8,106.5z M256.5,113.4c-0.8,0-1.4-0.5-1.4-1.1c0-0.6,0.6-1.1,1.4-1.1c0.8,0,1.4,0.5,1.4,1.1
						C257.9,113,257.3,113.4,256.5,113.4z M260.8,113.4c-0.8,0-1.4-0.5-1.4-1.1c0-0.6,0.6-1.1,1.4-1.1c0.8,0,1.4,0.5,1.4,1.1
						C262.3,113,261.6,113.4,260.8,113.4z M265.2,113.4c-0.8,0-1.4-0.5-1.4-1.1c0-0.6,0.6-1.1,1.4-1.1c0.8,0,1.4,0.5,1.4,1.1
						C266.6,113,266,113.4,265.2,113.4z"/>
					<g>
						<path class="st13" d="M369.1,109.4h12.1c0.3,0,0.7,0.1,1,0.2l-7,4.6l-7-4.6C368.5,109.5,368.8,109.4,369.1,109.4z"/>
						<path class="st13" d="M367.1,117v-6c0-0.3,0.1-0.6,0.3-0.8l5,3.3l-5.1,4.3C367.2,117.5,367.1,117.2,367.1,117z"/>
						<path class="st13" d="M381.2,118.5h-12.1c-0.4,0-0.8-0.1-1.1-0.2l5.1-4.3l1.6,1.1c0.1,0.1,0.2,0.1,0.3,0.1
							c0.1,0,0.2,0,0.3-0.1l1.6-1.1l5.1,4.3C381.9,118.4,381.6,118.5,381.2,118.5z"/>
						<path class="st13" d="M383.2,117c0,0.3-0.1,0.5-0.3,0.7l-5.1-4.3l5-3.3c0.2,0.2,0.3,0.5,0.3,0.8V117z"/>
					</g>
					<path class="st13" d="M383.4,178.2c0-2.8-3-5.1-6.7-5.1c-3.7,0-6.7,2.3-6.7,5.1c0,1.1,0.5,2.2,1.3,3l0,0l5.4,6.7l5.4-6.7l0,0
						C383,180.3,383.4,179.3,383.4,178.2z M376.7,181.7c-2.6,0-4.7-1.6-4.7-3.5c0-1.9,2.1-3.5,4.7-3.5c2.6,0,4.7,1.6,4.7,3.5
						C381.4,180.1,379.3,181.7,376.7,181.7z"/>
					<g>
						<polygon class="st13" points="29.8,98.5 26.7,98.5 26.7,94 22,94 22,98.5 18.8,98.5 24.3,102.2 						"/>
						<path class="st13" d="M31.2,101.8c0,0.7,0,1.4,0,2.2c-4.6,0-9.2,0-13.8,0c0-0.7,0-1.4,0-2.2c0-0.7-1.5-0.7-1.5,0
							c0,0.9,0,1.8,0,2.7c0,0.3,0.3,0.6,0.7,0.6c5.1,0,10.2,0,15.3,0c0.4,0,0.7-0.2,0.7-0.6c0-0.9,0-1.8,0-2.7
							C32.7,101.1,31.2,101.1,31.2,101.8z"/>
					</g>
					<g>
						<g>
							<path class="st13" d="M376.8,45.1c0,0.7-0.7,1.2-1.6,1.2c-0.9,0-1.6-0.6-1.6-1.2c0-0.7,0.7-1.2,1.6-1.2
								C376.1,43.9,376.8,44.4,376.8,45.1z"/>
							<path class="st13" d="M376.3,51.1c0,0.3-0.4,0.6-0.8,0.6h-0.6c-0.5,0-0.8-0.3-0.8-0.6v-3.7c0-0.3,0.4-0.6,0.8-0.6h0.6
								c0.5,0,0.8,0.3,0.8,0.6V51.1z"/>
						</g>
						<g>
							<path class="st13" d="M373.2,47.1C373.1,47,373.4,47.3,373.2,47.1c0,0-0.1-0.1-0.2-0.2c-0.2-0.2-0.3-0.5-0.5-0.8
								c-0.4-1,0-1.9,0.8-2.6c0.7-0.7-0.9-1.4-1.6-0.7c-1.5,1.6-1.6,3.8,0.1,5.3C372.7,48.8,374,47.8,373.2,47.1L373.2,47.1z"/>
							<path class="st13" d="M370.8,48.2c-1.3-1.7-1.4-3.9,0-5.6c0.6-0.8-1-1.4-1.6-0.7c-1.8,2.1-1.7,4.9,0,7
								C369.8,49.6,371.4,48.9,370.8,48.2L370.8,48.2z"/>
							<path class="st13" d="M377.1,43.6C377.2,43.7,377,43.5,377.1,43.6c0,0,0.1,0.1,0.2,0.2c0.2,0.2,0.3,0.5,0.5,0.8
								c0.4,1,0,1.9-0.8,2.6c-0.7,0.7,0.9,1.4,1.6,0.7c1.5-1.6,1.6-3.8-0.1-5.3C377.7,42,376.4,43,377.1,43.6L377.1,43.6z"/>
							<path class="st13" d="M379.6,42.6c1.3,1.7,1.4,3.9,0,5.6c-0.6,0.8,1,1.4,1.6,0.7c1.8-2.1,1.7-4.9,0-7
								C380.5,41.1,378.9,41.8,379.6,42.6L379.6,42.6z"/>
						</g>
					</g>
				</g>
			</g>
		</g>
	</g>
	<g class="st1">
		<text transform="matrix(1.3333 0 0 1 8.3291 24.9727)"><tspan x="0" y="0" class="st8 st14 st15 st16">Control de Acceso </tspan><tspan x="51.5" y="23" class="st8 st14 st15 st16">a la Red</tspan></text>
		<text transform="matrix(1.3333 0 0 1 40.312 51.3018)" class="st17 st14 st18 st16">BACKGROUND</text>
	</g>
</g>
<g id="NAC" class="st0">
	<linearGradient id="SVGID_5_" gradientUnits="userSpaceOnUse" x1="-9" y1="110" x2="415" y2="110">
		<stop  offset="0" style="stop-color:#CCE0F4"/>
		<stop  offset="6.405089e-02" style="stop-color:#C3DCF2"/>
		<stop  offset="0.1706" style="stop-color:#A9D2EE"/>
		<stop  offset="0.3066" style="stop-color:#80C2E7"/>
		<stop  offset="0.4649" style="stop-color:#47ACDE"/>
		<stop  offset="0.5674" style="stop-color:#1E9CD7"/>
		<stop  offset="0.8652" style="stop-color:#0075BE"/>
		<stop  offset="0.9944" style="stop-color:#005B97"/>
	</linearGradient>
	<rect x="-9" y="-39" class="st19" width="424" height="298"/>
	<path class="st20" d="M119.1,116.1c-4.2-5.1-6.5-10.7-6.5-16.6c0-23.9,38.3-43.3,85.9-43.7l30.7-28.3l-30.7-28
		C88.8-0.1,0,44.5,0,99.5c0,15.8,7.4,30.8,20.5,44.1L52.8,117L119.1,116.1z"/>
	<path class="st21" d="M210.8,56.1c43.2,2.7,76.6,21.1,76.6,43.4c0,8-4.4,15.6-11.9,22l33.2,27.1l64.8,0.7
		c16.9-14.7,26.5-31.7,26.5-49.8c0-53.3-83.5-96.9-188.6-99.8l30.5,27.8L210.8,56.1z"/>
	<path class="st22" d="M268.6,126.6c-16,10.1-40.8,16.6-68.6,16.6c-32.2,0-60.3-8.7-75.4-21.6l-65.4,0.9l-32.6,26.9
		c34.5,30,99.3,50.2,173.5,50.2c69.6,0,130.8-17.8,166.7-44.7l-64.3-0.7L268.6,126.6z"/>
	<g class="st1">
		<path class="st8" d="M150.3,85.3c1.5,0,2.6,0.2,3.3,0.5c0.7,0.3,1.1,0.6,1.1,0.8c0,0.4-1.1,0.5-1.1,0.5c-0.7-0.6-2-0.9-3.3-0.9
			c-2.4,0-4.1,0.9-4.1,2.2c0,1.3,1.7,2.2,4.1,2.2c1.6,0,2.9-0.4,3.4-1c0,0,1.2,0.1,1.2,0.5c0,0.2-0.4,0.6-1.2,0.9
			c-0.8,0.3-2,0.5-3.5,0.5c-3.5,0-6-1.3-6-3.1C144.3,86.6,146.7,85.3,150.3,85.3z"/>
		<path class="st8" d="M156.3,88.4c0-1.8,2.5-3.1,6-3.1c3.5,0,6,1.3,6,3.1c0,1.8-2.5,3.1-6,3.1C158.7,91.5,156.3,90.2,156.3,88.4z
			 M166.3,88.4c0-1.3-1.7-2.3-4.1-2.3c-2.4,0-4.1,0.9-4.1,2.2c0,1.3,1.7,2.2,4.1,2.2S166.3,89.7,166.3,88.4z"/>
		<path class="st8" d="M170.3,91v-5c0-0.3,0.3-0.5,0.9-0.5h0.3c0.6,0,0.8,0.1,1.1,0.4l5.8,4.1v-4.1c0-0.3,0.2-0.4,0.8-0.4h0.2
			c0.5,0,0.8,0.1,0.8,0.4v5c0,0.3-0.3,0.5-0.9,0.5h-0.1c-0.6,0-0.7-0.1-1-0.3l-6.2-4.4V91c0,0.3-0.3,0.4-0.8,0.4H171
			C170.5,91.4,170.3,91.2,170.3,91z"/>
		<path class="st8" d="M186,86.3h-3.2c-0.6,0-0.9-0.1-0.9-0.4v0c0-0.3,0.3-0.4,0.9-0.4h8.4c0.6,0,0.9,0.1,0.9,0.4v0
			c0,0.3-0.3,0.4-0.9,0.4h-3.2V91c0,0.3-0.3,0.4-0.8,0.4h-0.3c-0.5,0-0.8-0.1-0.8-0.4V86.3z"/>
		<path class="st8" d="M193.6,90.9V86c0-0.3,0.4-0.5,1-0.5h3.4c2.9,0,4.4,0.6,4.4,1.8c0,0.9-1,1.5-2.8,1.7c-0.2,0-0.5,0-0.7,0.1
			l3.5,2.1c0.1,0.1-0.3,0.4-1.1,0.4c-0.5,0-0.8-0.1-1.2-0.4l-3.2-2h-1.3V91c0,0.3-0.3,0.4-0.8,0.4h-0.3
			C193.9,91.4,193.6,91.2,193.6,90.9z M197.9,88.3c1.7,0,2.6-0.4,2.6-1c0-0.7-0.9-1-2.6-1h-2.4v2.1H197.9z"/>
		<path class="st8" d="M203.9,88.4c0-1.8,2.5-3.1,6-3.1c3.5,0,6,1.3,6,3.1c0,1.8-2.5,3.1-6,3.1C206.3,91.5,203.9,90.2,203.9,88.4z
			 M214,88.4c0-1.3-1.7-2.3-4.1-2.3s-4.1,0.9-4.1,2.2c0,1.3,1.7,2.2,4.1,2.2C212.3,90.6,214,89.7,214,88.4z"/>
		<path class="st8" d="M217.9,90.8v-5c0-0.3,0.3-0.4,0.8-0.4h0.3c0.5,0,0.8,0.1,0.8,0.4v4.7h5.1c0.6,0,0.9,0.1,0.9,0.4v0
			c0,0.3-0.3,0.4-0.9,0.4h-6C218.3,91.3,217.9,91.1,217.9,90.8z"/>
		<path class="st8" d="M230,86c0-0.3,0.4-0.5,1-0.5h2.9c4,0,6.4,1.1,6.4,2.9c0,1.8-2.4,3-6.5,3h-2.8c-0.6,0-1-0.2-1-0.5V86z
			 M238.4,88.4c0-1.3-1.7-2.1-4.5-2.1h-2v4.3h2C236.7,90.5,238.4,89.7,238.4,88.4z"/>
		<path class="st8" d="M242.4,90.8V86c0-0.3,0.4-0.5,1-0.5h6.9c0.6,0,0.9,0.1,0.9,0.4v0.1c0,0.3-0.3,0.4-0.9,0.4h-6v1.7h4.6
			c0.6,0,0.9,0.1,0.9,0.4v0c0,0.3-0.3,0.4-0.9,0.4h-4.6v1.8h6.1c0.6,0,0.9,0.1,0.9,0.4v0c0,0.3-0.3,0.4-0.9,0.4h-7
			C242.8,91.3,242.4,91.1,242.4,90.8z"/>
		<path class="st8" d="M144.4,102.1l4.2-5.4c0.1-0.2,0.4-0.3,1.3-0.3c0.9,0,1.2,0.1,1.3,0.3l4.2,5.4c0.1,0.1-0.5,0.3-1,0.3
			c-0.4,0-0.9-0.1-1.1-0.4l-1-1.3h-4.7l-1,1.4c-0.2,0.3-0.6,0.4-1,0.4C144.9,102.4,144.3,102.2,144.4,102.1z M151.8,99.8l-1.9-2.5
			l-1.9,2.5H151.8z"/>
		<path class="st8" d="M162.3,96.3c1.5,0,2.6,0.2,3.3,0.5c0.7,0.3,1.1,0.6,1.1,0.8c0,0.4-1.1,0.5-1.1,0.5c-0.7-0.6-2-0.9-3.3-0.9
			c-2.4,0-4.1,0.9-4.1,2.2c0,1.3,1.7,2.2,4.1,2.2c1.6,0,2.9-0.4,3.4-1c0,0,1.2,0.1,1.2,0.5c0,0.2-0.4,0.6-1.2,0.8
			c-0.8,0.3-2,0.5-3.5,0.5c-3.5,0-6-1.3-6-3.1C156.3,97.6,158.8,96.3,162.3,96.3z"/>
		<path class="st8" d="M174.3,96.3c1.5,0,2.6,0.2,3.3,0.5c0.7,0.3,1.1,0.6,1.1,0.8c0,0.4-1.1,0.5-1.1,0.5c-0.7-0.6-2-0.9-3.3-0.9
			c-2.4,0-4.1,0.9-4.1,2.2c0,1.3,1.7,2.2,4.1,2.2c1.6,0,2.9-0.4,3.4-1c0,0,1.2,0.1,1.2,0.5c0,0.2-0.4,0.6-1.2,0.8
			c-0.8,0.3-2,0.5-3.5,0.5c-3.5,0-6-1.3-6-3.1C168.3,97.6,170.8,96.3,174.3,96.3z"/>
		<path class="st8" d="M180.8,101.8v-4.9c0-0.3,0.4-0.5,1-0.5h6.9c0.6,0,0.9,0.1,0.9,0.4v0.1c0,0.3-0.3,0.4-0.9,0.4h-6v1.7h4.6
			c0.6,0,0.9,0.1,0.9,0.4v0c0,0.3-0.3,0.4-0.9,0.4h-4.6v1.8h6.1c0.6,0,0.9,0.1,0.9,0.4v0c0,0.3-0.3,0.4-0.9,0.4h-7
			C181.2,102.3,180.8,102.1,180.8,101.8z"/>
		<path class="st8" d="M190.8,101.3c0-0.3,0.8-0.5,0.9-0.5c0.7,0.5,1.9,0.9,3.6,0.9c1.6,0,2.6-0.3,2.6-0.9c0-0.7-1.4-0.8-3-1
			c-1.8-0.2-3.7-0.5-3.7-1.7c0-1,1.7-1.7,4.3-1.7c1.6,0,2.7,0.2,3.3,0.5c0.5,0.2,0.7,0.4,0.7,0.6c0,0.3-0.8,0.5-0.9,0.5
			c-0.6-0.4-1.8-0.8-3.2-0.8c-1.5,0-2.4,0.4-2.4,0.9c0,0.6,1.2,0.7,2.8,0.9c2,0.2,3.9,0.6,3.9,1.8c0,1.1-1.7,1.8-4.4,1.8
			c-1.8,0-3.1-0.3-3.8-0.6C191,101.6,190.8,101.4,190.8,101.3z"/>
		<path class="st8" d="M201.1,99.4c0-1.8,2.5-3.1,6-3.1c3.5,0,6,1.3,6,3.1c0,1.8-2.5,3.1-6,3.1C203.6,102.4,201.1,101.2,201.1,99.4z
			 M211.2,99.4c0-1.3-1.7-2.3-4.1-2.3S203,98,203,99.4c0,1.3,1.7,2.2,4.1,2.2C209.5,101.6,211.2,100.7,211.2,99.4z"/>
		<path class="st8" d="M216.7,102.1l4.2-5.4c0.1-0.2,0.4-0.3,1.3-0.3c0.9,0,1.2,0.1,1.3,0.3l4.2,5.4c0.1,0.1-0.5,0.3-1,0.3
			c-0.4,0-0.9-0.1-1.1-0.4l-1-1.3h-4.7l-1,1.4c-0.2,0.3-0.6,0.4-1,0.4C217.2,102.4,216.7,102.2,216.7,102.1z M224.1,99.8l-1.9-2.5
			l-1.9,2.5H224.1z"/>
		<path class="st8" d="M231.8,101.8v-5c0-0.3,0.3-0.4,0.8-0.4h0.3c0.5,0,0.8,0.1,0.8,0.4v4.7h5.1c0.6,0,0.9,0.1,0.9,0.4v0
			c0,0.3-0.3,0.4-0.9,0.4h-6C232.2,102.3,231.8,102.1,231.8,101.8z"/>
		<path class="st8" d="M240.4,102.1l4.2-5.4c0.1-0.2,0.4-0.3,1.3-0.3c0.9,0,1.2,0.1,1.3,0.3l4.2,5.4c0.1,0.1-0.5,0.3-1,0.3
			c-0.4,0-0.9-0.1-1.1-0.4l-1-1.3h-4.7l-1,1.4c-0.2,0.3-0.6,0.4-1,0.4C240.9,102.4,240.4,102.2,240.4,102.1z M247.8,99.8l-1.9-2.5
			l-1.9,2.5H247.8z"/>
		<path class="st8" d="M182,112.8v-4.9c0-0.3,0.4-0.5,1-0.5h3.4c2.9,0,4.4,0.6,4.4,1.8c0,0.9-1,1.5-2.8,1.7c-0.2,0-0.5,0-0.7,0.1
			l3.5,2.1c0.1,0.1-0.3,0.4-1.1,0.4c-0.5,0-0.8-0.1-1.2-0.4l-3.2-2h-1.3v1.9c0,0.3-0.3,0.4-0.8,0.4h-0.3
			C182.3,113.3,182,113.1,182,112.8z M186.3,110.2c1.7,0,2.6-0.4,2.6-1c0-0.7-0.9-1-2.6-1h-2.4v2.1H186.3z"/>
		<path class="st8" d="M192.8,112.8v-4.9c0-0.3,0.4-0.5,1-0.5h6.9c0.6,0,0.9,0.1,0.9,0.4v0.1c0,0.3-0.3,0.4-0.9,0.4h-6v1.7h4.6
			c0.6,0,0.9,0.1,0.9,0.4v0c0,0.3-0.3,0.4-0.9,0.4h-4.6v1.8h6.1c0.6,0,0.9,0.1,0.9,0.4v0c0,0.3-0.3,0.4-0.9,0.4h-7
			C193.2,113.3,192.8,113.1,192.8,112.8z"/>
		<path class="st8" d="M203.5,107.9c0-0.3,0.4-0.5,1-0.5h2.9c4,0,6.4,1.1,6.4,2.9c0,1.8-2.4,3-6.5,3h-2.8c-0.6,0-1-0.2-1-0.5V107.9z
			 M211.9,110.3c0-1.3-1.7-2.1-4.5-2.1h-2v4.3h2C210.2,112.5,211.9,111.7,211.9,110.3z"/>
	</g>
	<text transform="matrix(0.6386 -0.385 0.5164 0.8564 26.5264 111.4778)" class="st23 st24 st25">ADMINISTRACIN DE IDENTIDAD</text>
	<text transform="matrix(0.8092 0 0 1 90.9541 170.252)" class="st23 st24 st26">SEGURIDAD DEL PUNTO FINAL</text>
	<text transform="matrix(0.4921 0.2916 -0.5098 0.8603 236.7251 18.684)" class="st23 st24 st27">POLTICAS DE USO DE APLICACIONES</text>
</g>
<g id="CheckList" class="st0">
	<defs>
		<rect id="SVGID_6_" x="0" y="0" width="400" height="200"/>
	</defs>
	<clipPath id="SVGID_7_" class="st1">
		<use xlink:href="#SVGID_6_"  style="overflow:visible;"/>
	</clipPath>
	<rect x="-15" y="-31" class="st28" width="432" height="251"/>
	<path class="st29" d="M381.1,154.1L381.1,154.1c-2.7,0.3-5.3,0.6-7.8,1l-6.5-4.4l0,0c-1.8,0.2-3.6,0.4-5.3,0.6
		c-2-2.8-3.5-5.8-5.3-8.7c-0.2-0.3-0.4-0.7-0.7-1c0,0,0,0,0,0c-0.4-0.5-0.7-1-1.1-1.6c-0.1-0.1-0.2-0.3-0.3-0.4
		c-0.3-0.4-0.6-0.8-0.9-1.2c-0.1-0.1-0.2-0.3-0.3-0.4c-0.3-0.4-0.7-0.8-1-1.2c-0.1-0.1-0.2-0.2-0.3-0.3c-0.4-0.4-0.7-0.8-1.1-1.2
		c-0.1-0.1-0.2-0.2-0.3-0.3c-0.4-0.4-0.8-0.8-1.3-1.3c-0.1-0.1-0.1-0.1-0.2-0.2c-0.5-0.4-0.9-0.9-1.4-1.3c0,0-0.1-0.1-0.1-0.1
		c-0.5-0.5-1-0.9-1.5-1.4c0,0,0,0,0,0c-4.8-4.2-10.3-8.3-15.8-12.4c-2.5-1.8-5.1-3.8-9.1-4.8c-2-0.5-4.8-0.8-7.4-0.6
		c0,0-0.1,0-0.1,0c-0.3,0-0.6,0-0.8,0.1c-0.1,0-0.2,0-0.2,0c-0.2,0-0.5,0.1-0.7,0.1c-0.1,0-0.2,0-0.3,0c-0.2,0-0.4,0.1-0.6,0.1
		c-0.1,0-0.2,0-0.3,0.1c-0.2,0-0.4,0.1-0.5,0.1c-0.1,0-0.2,0.1-0.3,0.1c-0.2,0.1-0.3,0.1-0.5,0.2c-0.1,0-0.2,0.1-0.3,0.1
		c-0.2,0.1-0.3,0.1-0.4,0.2c-0.1,0-0.1,0.1-0.2,0.1c-0.2,0.1-0.4,0.2-0.5,0.4c0,0,0,0,0,0l0,0c-1.8-1.9-5.9-3.2-10.1-3.1
		c-0.7,0-1.4,0.1-2,0.1c-0.1,0-0.1,0-0.2,0c-0.1,0-0.3,0-0.4,0.1c-0.1,0-0.2,0-0.3,0c-0.1,0-0.3,0-0.4,0.1c-0.1,0-0.2,0-0.3,0.1
		c-0.1,0-0.2,0-0.3,0.1v-58h0.3c0.7,0,1.3-0.3,1.3-0.6v-2.9c0-0.4-0.6-0.6-1.3-0.6h-0.3v-1.8h0.3c0.7,0,1.3-0.3,1.3-0.6v-2.9
		c0-0.4-0.6-0.6-1.3-0.6h-0.3v-13v-3.2c0-2.4-4-4.4-8.9-4.4H122.7c-4.9,0-8.9,2-8.9,4.4v3.2v85.9c-8.1,2-15.4,4.9-23.9,9.4
		c-4.1,2.2-21.6,10.7-22,12.6c-0.6,0.5-1.1,1-1.6,1.5c-3,3-4.4,6.4-6.8,9.5c-0.2,0.3-0.5,0.6-0.8,0.9c-1.4-0.3-2.9-0.6-4.3-0.8h0
		l-7.4,4c-2.5-0.5-5-1-7.6-1.4h0l-88.3,47.1L-5.4,220l0,0l11.8,5.5l88.3-47.1v0c0,0,0,0,0,0c-0.3-0.4-0.6-0.7-0.9-1.1
		c-0.1-0.1-0.2-0.2-0.3-0.4c-0.2-0.2-0.4-0.5-0.6-0.7c-0.1-0.1-0.3-0.3-0.4-0.4c-0.2-0.2-0.4-0.4-0.6-0.6c-0.1-0.1-0.3-0.3-0.4-0.4
		c0,0-0.1-0.1-0.1-0.1l7.4-4v0h0c-0.2-0.3-0.5-0.6-0.7-0.8c5.4-1.6,11.6-2.8,17.3-4.3c6.8-1.8,13.1-4.1,18.5-6.9h151.1
		c2.3,0,4.4-0.4,6-1.2c0.4,0.1,0.9,0.3,1.3,0.4c0.4,0.1,0.9,0.3,1.4,0.4c0.5,0.2,1.1,0.3,1.6,0.5c0.4,0.1,0.9,0.2,1.3,0.3
		c0.6,0.2,1.2,0.3,1.8,0.5c0.4,0.1,0.8,0.2,1.2,0.3c0.7,0.2,1.3,0.3,2,0.5c0.3,0.1,0.7,0.2,1,0.2c1,0.2,2.1,0.5,3.1,0.7
		c2.8,0.6,5.7,1.1,8.4,1.8c0.6,0.1,1.1,0.3,1.7,0.4c1.1,0.3,2.2,0.5,3.2,0.9c0.3,0.1,0.5,0.2,0.8,0.2c0.5,0.2,1,0.3,1.5,0.5
		c0.3,0.1,0.6,0.2,0.9,0.3c-0.1,0.1-0.3,0.2-0.4,0.3c-0.1,0.1-0.3,0.2-0.4,0.3c-0.3,0.2-0.5,0.4-0.8,0.6c-0.1,0.1-0.3,0.2-0.4,0.3
		c-0.3,0.2-0.5,0.4-0.8,0.6c-0.1,0.1-0.2,0.2-0.3,0.3c-0.4,0.3-0.7,0.6-1,0.9l0,0l6.5,4.4c0,0-0.1,0.1-0.1,0.1
		c-0.2,0.1-0.4,0.3-0.5,0.4c-0.2,0.2-0.5,0.4-0.7,0.6c-0.2,0.1-0.3,0.3-0.5,0.4c-0.3,0.2-0.5,0.4-0.8,0.6c-0.1,0.1-0.3,0.2-0.4,0.3
		c-0.4,0.3-0.8,0.7-1.1,1c0,0,0,0,0,0v0l76.8,51.9l60.9-22.5L381.1,154.1z"/>
	<path class="st30" d="M84.1,120.6c18.5-9.9,31.4-11.8,58-14.2c2.9-0.3,6.2-0.4,8.5,0.5c2.8,1.1,2.8,3.2,2,4.9
		c-3.3,6.6-15.5,11-26.8,14.8c-6.8,2.3-13.6,4.6-20.4,6.9c-6.6,2.2-13.4,4.5-21.2,5c-6.1,0.5-22.8-1.8-22-5.3
		C62.5,131.2,80,122.8,84.1,120.6z"/>
	<path class="st31" d="M65.6,145.1c-4.6,1.8-9.3,3.7-12.8,6c-3.6,2.3-6,5.2-5.5,8.1c0.9,4.9,9.3,8.4,17.1,11.3
		c3,1.1,6.6,2.3,10.3,1.9c4.1-0.5,6.2-2.7,8.8-4.4c6.2-4.1,16.8-5.7,26-8.1c15.3-4,27.5-10.7,33.9-18.7c6.3-8,6.7-17.1,1-25.2
		c-16.9,0.4-32.7,5.1-44.8,11.1C87.4,132.9,78.9,139.8,65.6,145.1z"/>
	<path class="st32" d="M108.7,132.9c-0.6,3.7-0.2,7.5,0.3,11.3c0.3,2.1,0.6,4.3,3.2,5.9c1.4,0.9,3.5,1.8,2.7,2.9
		c-0.5,0.6-1.9,0.9-3.1,1.2c-10.6,2.1-21.1,4.2-31.7,6.3c-1.5,0.3-3.2,0.6-4.7,0.3c-1.5-0.3-2.3-1.1-2.8-1.8c-2.1-2.9-2.2-6.1-1-9.2
		c1.2-3,3.6-5.9,6.4-8.7c4.2-4.2,9.4-8.2,15.7-11.6c3.2-1.7,6.7-3.3,10.5-4.7c1.9-0.7,11.3-3.9,8.6-0.7
		C110.7,126.9,109.2,129.8,108.7,132.9z"/>
	<g class="st33">
		<g>
			<path class="st34" d="M289.1,42.4L289.1,42.4c-0.9,0-1.6-0.7-1.6-1.6v-1c0-0.9,0.7-1.6,1.6-1.6l0,0c0.9,0,1.6,0.7,1.6,1.6v1
				C290.7,41.7,290,42.4,289.1,42.4z"/>
			<path class="st34" d="M289.1,48.3L289.1,48.3c-0.9,0-1.6-0.7-1.6-1.6v-1c0-0.9,0.7-1.6,1.6-1.6l0,0c0.9,0,1.6,0.7,1.6,1.6v1
				C290.7,47.6,290,48.3,289.1,48.3z"/>
			<path class="st35" d="M271.4,153H127c-9.8,0-17.7-7.9-17.7-17.7V38.5c0-9.8,7.9-17.7,17.7-17.7h144.4c9.8,0,17.7,7.9,17.7,17.7
				v96.8C289.1,145.1,281.2,153,271.4,153z"/>
			<path class="st36" d="M271.4,149.9H127c-9.8,0-17.7-7.9-17.7-17.7V35.4c0-9.8,7.9-17.7,17.7-17.7h144.4c9.8,0,17.7,7.9,17.7,17.7
				v96.8C289.1,141.9,281.2,149.9,271.4,149.9z"/>
			<rect x="120" y="29.2" class="st8" width="158.5" height="109.1"/>
			<rect x="163.7" y="29.2" class="st37" width="114.8" height="109.1"/>
			<rect x="120" y="29.2" class="st38" width="158.5" height="11.1"/>
			<path class="st39" d="M207.3,152.4h-16.1c-1.2,0-2.1-0.5-2.1-1.1l0,0c0-0.6,0.9-1.1,2.1-1.1h16.1c1.2,0,2.1,0.5,2.1,1.1l0,0
				C209.4,152,208.4,152.4,207.3,152.4z"/>
			<ellipse class="st34" cx="199.2" cy="144.2" rx="6.8" ry="3.4"/>
			<text transform="matrix(2.1821 0 0 1 119.9551 37.5693)" class="st37 st40 st41">Lista de chequeo</text>
		</g>
		<g>
			<g>
				<ellipse class="st42" cx="142.4" cy="55.3" rx="10.9" ry="5.5"/>
				<ellipse class="st38" cx="142.4" cy="54.3" rx="10.9" ry="5.5"/>
				<g>
					<polygon class="st43" points="140.3,57.3 134.6,54.4 136.4,53.6 140.3,55.5 148.5,51.4 150.2,52.3 					"/>
				</g>
			</g>
			<path class="st44" d="M271,49.9h-95.6c-0.9,0-1.5-0.3-1.5-0.8l0,0c0-0.4,0.7-0.8,1.5-0.8H271c0.9,0,1.5,0.3,1.5,0.8l0,0
				C272.6,49.5,271.9,49.9,271,49.9z"/>
			<path class="st44" d="M271,53.8h-95.6c-0.9,0-1.5-0.3-1.5-0.8l0,0c0-0.4,0.7-0.8,1.5-0.8H271c0.9,0,1.5,0.3,1.5,0.8l0,0
				C272.6,53.5,271.9,53.8,271,53.8z"/>
			<path class="st44" d="M271,57.7h-95.6c-0.9,0-1.5-0.3-1.5-0.8l0,0c0-0.4,0.7-0.8,1.5-0.8H271c0.9,0,1.5,0.3,1.5,0.8l0,0
				C272.6,57.4,271.9,57.7,271,57.7z"/>
			<path class="st44" d="M271,61.7h-95.6c-0.9,0-1.5-0.3-1.5-0.8l0,0c0-0.4,0.7-0.8,1.5-0.8H271c0.9,0,1.5,0.3,1.5,0.8l0,0
				C272.6,61.3,271.9,61.7,271,61.7z"/>
		</g>
		<g>
			<g>
				<ellipse class="st45" cx="142.4" cy="76.2" rx="10.9" ry="5.5"/>
				<ellipse class="st45" cx="142.4" cy="75.3" rx="10.9" ry="5.5"/>
				<g>
					<polygon points="140.3,78.2 134.6,75.4 136.4,74.5 140.3,76.4 148.5,72.4 150.2,73.2 					"/>
				</g>
			</g>
			<path class="st46" d="M271,70.8h-95.6c-0.9,0-1.5-0.3-1.5-0.8l0,0c0-0.4,0.7-0.8,1.5-0.8H271c0.9,0,1.5,0.3,1.5,0.8l0,0
				C272.6,70.5,271.9,70.8,271,70.8z"/>
			<path class="st46" d="M271,74.7h-95.6c-0.9,0-1.5-0.3-1.5-0.8l0,0c0-0.4,0.7-0.8,1.5-0.8H271c0.9,0,1.5,0.3,1.5,0.8l0,0
				C272.6,74.4,271.9,74.7,271,74.7z"/>
			<path class="st46" d="M271,78.7h-95.6c-0.9,0-1.5-0.3-1.5-0.8l0,0c0-0.4,0.7-0.8,1.5-0.8H271c0.9,0,1.5,0.3,1.5,0.8l0,0
				C272.6,78.3,271.9,78.7,271,78.7z"/>
			<path class="st46" d="M271,82.6h-95.6c-0.9,0-1.5-0.3-1.5-0.8l0,0c0-0.4,0.7-0.8,1.5-0.8H271c0.9,0,1.5,0.3,1.5,0.8l0,0
				C272.6,82.3,271.9,82.6,271,82.6z"/>
		</g>
		<g>
			<g>
				<ellipse class="st42" cx="142.4" cy="97.1" rx="10.9" ry="5.5"/>
				<ellipse class="st38" cx="142.4" cy="96.2" rx="10.9" ry="5.5"/>
				<g>
					<polygon class="st43" points="140.3,99.1 134.6,96.3 136.4,95.4 140.3,97.4 148.5,93.3 150.2,94.2 					"/>
				</g>
			</g>
			<path class="st44" d="M271,91.8h-95.6c-0.9,0-1.5-0.3-1.5-0.8l0,0c0-0.4,0.7-0.8,1.5-0.8H271c0.9,0,1.5,0.3,1.5,0.8l0,0
				C272.6,91.4,271.9,91.8,271,91.8z"/>
			<path class="st44" d="M271,95.7h-95.6c-0.9,0-1.5-0.3-1.5-0.8l0,0c0-0.4,0.7-0.8,1.5-0.8H271c0.9,0,1.5,0.3,1.5,0.8l0,0
				C272.6,95.3,271.9,95.7,271,95.7z"/>
			<path class="st44" d="M271,99.6h-95.6c-0.9,0-1.5-0.3-1.5-0.8l0,0c0-0.4,0.7-0.8,1.5-0.8H271c0.9,0,1.5,0.3,1.5,0.8l0,0
				C272.6,99.3,271.9,99.6,271,99.6z"/>
			<path class="st44" d="M271,103.5h-95.6c-0.9,0-1.5-0.3-1.5-0.8l0,0c0-0.4,0.7-0.8,1.5-0.8H271c0.9,0,1.5,0.3,1.5,0.8l0,0
				C272.6,103.2,271.9,103.5,271,103.5z"/>
		</g>
		<g>
			<g>
				<ellipse class="st42" cx="142.4" cy="118.1" rx="10.9" ry="5.5"/>
				<ellipse class="st38" cx="142.4" cy="117.1" rx="10.9" ry="5.5"/>
				<g>
					<polygon class="st43" points="140.3,120.1 134.6,117.2 136.4,116.4 140.3,118.3 148.5,114.2 150.2,115.1 					"/>
				</g>
			</g>
			<path class="st44" d="M271,112.7h-95.6c-0.9,0-1.5-0.3-1.5-0.8l0,0c0-0.4,0.7-0.8,1.5-0.8H271c0.9,0,1.5,0.3,1.5,0.8l0,0
				C272.6,112.4,271.9,112.7,271,112.7z"/>
			<path class="st44" d="M271,116.6h-95.6c-0.9,0-1.5-0.3-1.5-0.8l0,0c0-0.4,0.7-0.8,1.5-0.8H271c0.9,0,1.5,0.3,1.5,0.8l0,0
				C272.6,116.3,271.9,116.6,271,116.6z"/>
			<path class="st44" d="M271,120.6h-95.6c-0.9,0-1.5-0.3-1.5-0.8l0,0c0-0.4,0.7-0.8,1.5-0.8H271c0.9,0,1.5,0.3,1.5,0.8l0,0
				C272.6,120.2,271.9,120.6,271,120.6z"/>
			<path class="st44" d="M271,124.5h-95.6c-0.9,0-1.5-0.3-1.5-0.8l0,0c0-0.4,0.7-0.8,1.5-0.8H271c0.9,0,1.5,0.3,1.5,0.8l0,0
				C272.6,124.1,271.9,124.5,271,124.5z"/>
		</g>
	</g>
	<g class="st33">
		<path class="st47" d="M323,163.8c-1.9-2.2-5.8-3.9-10-5.2c-4.2-1.2-8.8-2-13.3-3c-17.7-3.7-33.6-9.6-45.9-17
			c-5.3-3.2-10.3-6.8-17.5-8.9c-0.7-0.2-0.9-0.7-0.3-1c3.6-1.8,9-2.1,14-1.4c5.5,0.8,8.7,3.8,13,5.7c4.3,1.9,10.1,2.9,15.4,4
			c-7.7-8.6-17.5-16.3-30.5-23c-3.9-2-17.3-8.5-20.1-10.9c0,0-0.1,0-0.1-0.1c-3.1-2.7,4-5.5,8.7-3.4c10,4.5,22.2,10.2,29.8,14.1
			c-0.5-1.9,1.4-4,4.8-5c3.4-1,8-0.7,11,0.5c1.4-2,5.4-3.3,9.6-3.4c4.2-0.1,8.3,1.2,10.1,3.1c2.3-1.9,9.2-2,13.1-1
			c3.9,1,6.6,2.9,9.1,4.8c9.9,7.3,20,14.8,25.6,23.1c3.6,5.4,5.6,11.2,12,15.8c-4.7,3.3-8.7,6.4-15.2,8.9
			C339.9,163.1,331,164.8,323,163.8z"/>
		<path class="st48" d="M286.7,151.5c8.3,1.9,16.6,3.5,24.9,5.4c9.4-6.3,23.5-10.9,38.7-13c-2.2-7-6.3-13.9-12.2-20.3
			c4.6,3.9,8.6,7.9,11.6,12.2c3.6,5.4,5.6,11.2,12,15.8c-4.7,3.3-8.7,6.4-15.2,8.9c-6.5,2.5-15.5,4.1-23.4,3.1
			c-1.9-2.2-5.8-3.9-10-5.2c-4.2-1.2-8.8-2-13.3-3c-15.3-3.2-29.2-8-40.6-14C267.5,145.5,276.3,149.2,286.7,151.5z"/>
		<path class="st48" d="M271.3,113.1c1.2,1.3,3.1,2.4,4.9,3.5c4.4,2.6,8.8,5.3,13.2,7.9c0.7,0.4,0.6,1-0.3,1.4l0,0
			c-0.9,0.3-2.2,0.2-2.7-0.3c-4.1-3.6-10.6-6.3-16.2-9.4c-1.4-0.8-2.7-1.6-4-2.5c0.1,0,0.1,0.1,0.2,0.1c-0.5-1.8,1-3.6,3.8-4.6
			C269.6,110.4,270.1,111.8,271.3,113.1z"/>
		<path class="st48" d="M290.2,106c-0.5,0.6-0.7,1.3-0.7,2c0.1,1.8,1.6,3.5,3.3,5c3.7,3.4,8,6.7,12.8,9.7c-0.5,0.5-1.8,0.8-2.9,0.9
			c-5.9-4.1-11.8-8.1-17.7-12.2c-1-0.7-2-1.4-2.8-2.2C283.5,107.6,286.7,106.3,290.2,106z"/>
		<path class="st48" d="M306.3,113.5c-1.9-1.4-3.5-3-4.5-4.6c0,0,0,0,0,0c1.3-1,3.9-1.5,6.7-1.6c-0.5,0.6-0.9,1.2-1,1.8
			c-0.3,1.8,1.2,3.6,3.2,5.1c2,1.5,4.5,2.9,6.6,4.4c0.6,0.5,1.2,1,1.3,1.5c0,0.6-0.8,1.5-1.9,1.5
			C314.4,118.6,309.9,116.2,306.3,113.5z"/>
		<path class="st49" d="M241.4,129.2c2.5,0.3,4.5,1.2,6.2,2.2c-0.4,0.8-1.1,1.6-2.2,2.2c-2.7-1.5-5.7-2.9-9.1-3.9
			c-0.2-0.1-0.3-0.1-0.4-0.2C237.5,129,239.6,129,241.4,129.2z"/>
		<path class="st49" d="M231.5,104.3c-1-0.5-2-1.1-2.4-1.8c-0.4-0.7-0.3-1.5,0.7-2.1c1.1-0.6,3-0.8,4.6-0.6c1.6,0.2,2.9,0.8,3.9,1.5
			C237.5,102.9,234.7,104,231.5,104.3z"/>
		<path class="st8" d="M373.8,204.6l48.8-18.1L361,144.9l0,0c-20.8,2.1-38.7,8.7-48.8,18.1l0,0L373.8,204.6z"/>
		<path class="st50" d="M312.2,163c5.6-5.2,13.7-9.5,23.3-12.7c-7.1,2.9-13.2,6.5-17.7,10.7l61.6,41.6l-5.6,2.1L312.2,163L312.2,163
			z"/>
		<path class="st51" d="M391.2,222.7l60.9-22.5l-76.8-51.9h0c-25.9,2.6-48.2,10.9-60.9,22.5l0,0L391.2,222.7z"/>
		<path class="st52" d="M362.9,150.1c-14,4.1-25.6,10-33.5,17.3l74.8,50.6l-13,4.8l-76.8-51.9C325,161.1,342.3,153.8,362.9,150.1z"
			/>
		<path class="st48" d="M267.3,135.5c-4.8-1.2-8-3.6-11.3-5.7c-0.8-0.5-1.6-1.1-2.5-1.6c3.6,1.3,6.2,3.4,9.6,4.9
			c4.3,1.9,10.1,2.9,15.4,4c-7.7-8.6-17.5-16.3-30.5-23c-3.9-2-17.3-8.5-20.1-10.9c0,0-0.1,0-0.1-0.1c-0.2-0.2-0.4-0.4-0.5-0.5
			c0.8,0.6,1.7,1.1,2.6,1.6c2.5,1.3,5.5,2.3,8.3,3.4c21.7,8.2,38.4,19.6,47.5,32.4c-1.8-1.5-5.2-2.3-8.5-2.9
			C273.9,136.6,270.4,136.3,267.3,135.5z"/>
	</g>
	<path class="st31" d="M41.7,152c5.9-1.6,9.6-4.7,11.9-7.9c2.4-3.2,3.8-6.5,6.8-9.5c6.2-6.3,18.5-10.4,31.1-13.5s26-5.3,37.7-9.1
		c4.5,1.5,4.9,5.3,1.5,7.4c-3.4,2.1-8.6,3.2-13,4.8c-7.6,2.6-13,6.6-17.6,10.6c-4.6,4-8.4,8.3-13.7,12.1c-5.3,3.8-12.3,7.2-21.1,8.6
		C56.6,156.9,47.7,155.5,41.7,152z"/>
	<path class="st53" d="M120.9,117.3c2.3-1,5.6-1.5,7.2-2.8c0.8-0.7,1.1-1.5,0.6-2.3c-3.7,1.2-7.5,2.2-11.5,3.2
		C118.2,116.2,119.4,116.8,120.9,117.3z"/>
	<path class="st54" d="M22.1,202.8L-22.2,182l70.8-37.8l0,0c20.2,3.3,36.4,10.9,44.3,20.8v0L22.1,202.8z"/>
	<path class="st55" d="M92.9,165c-4.4-5.5-11.4-10.3-20.2-14c6.4,3.3,11.6,7.2,15.1,11.6L17,200.4l5.1,2.4L92.9,165L92.9,165z"/>
	<path class="st56" d="M0.6,219.7l-55.2-25.9l88.3-47.1h0c25.1,4.1,45.4,13.6,55.2,25.9v0L0.6,219.7z"/>
	<path class="st57" d="M45.5,149.2c12.9,4.9,23.1,11.4,29.3,19.1l-86,45.9l11.8,5.5l88.3-47.1C80.6,162.4,65.1,154.1,45.5,149.2z"/>
</g>
<g class="st0">
	
		<image style="display:inline;overflow:visible;" width="3200" height="4000" xlink:href="../../../../../Downloads/Serious-businessman-pointing-upwards/OC3HKY0.jpg"  transform="matrix(0.1055 0 0 2.932771e-02 57.1308 58.7379)">
	</image>
	<rect x="-11" y="-9" class="st58" width="422" height="226"/>
	<polygon class="st59" points="78.1,110.3 57.2,88.3 78.1,66.4 119.9,66.4 140.8,88.3 119.9,110.3 	"/>
	<polygon class="st59" points="141.1,88.5 119.6,66.4 141.1,44.4 184,44.4 205.4,66.4 184,88.5 	"/>
	<polygon class="st59" points="141.8,131.3 119.6,109.6 141.8,88 186.2,88 208.4,109.6 186.2,131.3 	"/>
	<polygon class="st59" points="204.3,65.5 183,43.2 204.3,21 247,21 268.3,43.2 247,65.5 	"/>
	<polygon class="st59" points="205.9,109.4 185.2,87.4 205.9,65.4 247.2,65.4 267.8,87.4 247.2,109.4 	"/>
	<polygon class="st59" points="206.4,155.7 186.4,132.8 206.4,109.8 246.4,109.8 266.5,132.8 246.4,155.7 	"/>
	<polygon class="st59" points="267.5,87.5 247.1,65.6 267.5,43.8 308.3,43.8 328.6,65.6 308.3,87.5 	"/>
	<polygon class="st59" points="330.2,65.2 309.4,43.6 330.2,21.9 371.9,21.9 392.8,43.6 371.9,65.2 	"/>
	<polygon class="st59" points="267.4,131.8 246.6,109.6 267.4,87.4 308.8,87.4 329.6,109.6 308.8,131.8 	"/>
	<polygon class="st59" points="328.8,109.4 308,87.5 328.8,65.5 370.5,65.5 391.3,87.5 370.5,109.4 	"/>
	<text transform="matrix(1.6456 0 0 1 86.1289 84.7773)" class="st1"><tspan x="0" y="0" class="st8 st40 st60">Ataque </tspan><tspan x="1.3" y="5.4" class="st8 st40 st60">desde </tspan><tspan x="-0.2" y="10.8" class="st8 st40 st60">internet</tspan></text>
	<text transform="matrix(1.6456 0 0 1 143.4258 65.5029)" class="st23 st40 st60">Proteccin</text>
	<text transform="matrix(1.6456 0 0 1 148.2334 110.9238)" class="st23 st61 st60">Internet</text>
	<text transform="matrix(1.6456 0 0 1 209.249 43.5596)" class="st1"><tspan x="0" y="0" class="st8 st40 st60">Sistemas </tspan><tspan x="6.4" y="5.4" class="st8 st40 st60">de </tspan><tspan x="-2.6" y="10.8" class="st8 st40 st60">informacin</tspan></text>
	<text transform="matrix(1.6456 0 0 1 214.9619 87.4785)" class="st1"><tspan x="0" y="0" class="st8 st40 st60">Ciber </tspan><tspan x="-3.8" y="5.4" class="st8 st40 st60">seguridad</tspan></text>
	<text transform="matrix(1.6456 0 0 1 200.3682 131.7559)" class="st23 st40 st60">Computadores</text>
	<text transform="matrix(1.6456 0 0 1 266.418 110.4219)" class="st1"><tspan x="0" y="0" class="st8 st40 st60">Dispositivos </tspan><tspan x="5.1" y="5.4" class="st8 st40 st60">mbiles</tspan></text>
	<text transform="matrix(1.6456 0 0 1 342.9189 43.5596)" class="st23 st40 st60">Redes</text>
	<text transform="matrix(1.6456 0 0 1 339.5 90.1787)" class="st23 st40 st60">Hackers</text>
	<g class="st1">
		<linearGradient id="SVGID_8_" gradientUnits="userSpaceOnUse" x1="289.2025" y1="42.166" x2="289.2025" y2="78.2497">
			<stop  offset="0" style="stop-color:#FFFFFF"/>
			<stop  offset="0.2423" style="stop-color:#DEF5F9;stop-opacity:0.7577"/>
			<stop  offset="1" style="stop-color:#FFFFFF;stop-opacity:0"/>
		</linearGradient>
		<path class="st62" d="M289.2,79.6c-14.5,0-26.2-7-26.2-15.7c0-8.7,11.7-15.7,26.2-15.7c14.5,0,26.2,7,26.2,15.7
			C315.4,72.6,303.7,79.6,289.2,79.6z"/>
		<g class="st63">
			
				<image style="overflow:visible;" width="126" height="104" xlink:href="17D3AADC90208CD5.png"  transform="matrix(1 0 0 1 226 12)">
			</image>
		</g>
		<g>
			<g>
				<path class="st8" d="M310,54.5l-4.5,2.7c2.3,1.9,3.6,4.3,3.6,6.8c0,0,0,0,0,0.1h6.3c0,0,0,0,0-0.1
					C315.3,60.4,313.3,57.1,310,54.5z"/>
				<path class="st8" d="M291,48.4v3.8c4.5,0.2,8.6,1.4,11.7,3.1l4.4-2.7C302.9,50.2,297.3,48.6,291,48.4z"/>
				<path class="st8" d="M308.6,66.5c-0.8,2.2-2.6,4.1-5.1,5.7l4.4,2.7c3.6-2.2,6.2-5.1,7.1-8.3H308.6z"/>
				<path class="st8" d="M300.3,73.8c-2.7,1.1-5.9,1.8-9.3,2v3.8c5.1-0.2,9.9-1.3,13.8-3.1L300.3,73.8z"/>
				<path class="st8" d="M277.8,73.7l-4.5,2.7c3.8,1.8,8.5,2.9,13.6,3.2v-3.8C283.6,75.5,280.5,74.8,277.8,73.7z"/>
				<path class="st8" d="M269.8,66.5h-6.4c0.9,3.2,3.3,6,6.9,8.2l4.4-2.7C272.3,70.5,270.6,68.6,269.8,66.5z"/>
				<path class="st8" d="M272.8,57.3l-4.5-2.7c-3.3,2.6-5.2,5.8-5.2,9.3c0,0,0,0,0,0.1h6.3c0,0,0,0,0-0.1
					C269.3,61.5,270.6,59.2,272.8,57.3z"/>
				<path class="st8" d="M271,52.8l4.4,2.7c3.1-1.8,7.1-2.9,11.5-3.2v-3.8C280.8,48.7,275.2,50.3,271,52.8z"/>
			</g>
			<path class="st8" d="M297,63h-0.8v-2.4c0-2.4-3.3-4.4-7.3-4.4s-7.3,2-7.3,4.4V63h-0.8c-0.6,0-1.1,0.3-1.1,0.7v7.2
				c0,0.4,0.5,0.7,1.1,0.7H297c0.6,0,1.1-0.3,1.1-0.7v-7.2C298.1,63.3,297.6,63,297,63z M290.5,67.3v1.8c0,0.4-0.5,0.7-1.1,0.7h-1.1
				c-0.6,0-1.1-0.3-1.1-0.7v-1.8c0,0,0-0.1,0-0.1c-0.3-0.2-0.5-0.5-0.5-0.8c0-0.7,1-1.3,2.1-1.3c1.2,0,2.1,0.6,2.1,1.3
				C291,66.7,290.8,67,290.5,67.3C290.5,67.2,290.5,67.2,290.5,67.3z M293.3,63h-8.9v-2.4c0-1.5,2-2.7,4.5-2.7
				c2.5,0,4.5,1.2,4.5,2.7V63z"/>
		</g>
		<g>
			
				<image style="overflow:visible;" width="125" height="104" xlink:href="17D3AADC90208CD6.png"  transform="matrix(1 0 0 1 227 12)">
			</image>
		</g>
	</g>
	<polygon class="st59" points="78.4,66.4 57.5,44.4 78.4,22.5 120.2,22.5 141.2,44.4 120.2,66.4 	"/>
	<polygon class="st59" points="78.7,154.2 57.8,132.2 78.7,110.3 120.6,110.3 141.5,132.2 120.6,154.2 	"/>
	<polygon class="st64" points="141.7,176.5 120.2,154.1 141.7,131.8 184.6,131.8 206,154.1 184.6,176.5 	"/>
	<polygon class="st59" points="16,176.2 -4.9,154.2 16,132.3 57.8,132.3 78.7,154.2 57.8,176.2 	"/>
	<polygon class="st64" points="15.7,132.2 -5.2,110.3 15.7,88.3 57.5,88.3 78.4,110.3 57.5,132.2 	"/>
	<polygon class="st64" points="15.7,88.5 -5.2,66.5 15.7,44.6 57.5,44.6 78.4,66.5 57.5,88.5 	"/>
	<polygon class="st64" points="15.7,44.5 -5.2,22.5 15.7,0.6 57.5,0.6 78.4,22.5 57.5,44.5 	"/>
	<polygon class="st59" points="140.2,44.3 119.3,22.3 140.2,0.4 182,0.4 203,22.3 182,44.3 	"/>
	<polygon class="st59" points="268.5,43.6 247.9,21.7 268.5,-0.2 309.8,-0.2 330.5,21.7 309.8,43.6 	"/>
	<polygon class="st59" points="329.1,153.7 308,131.8 329.1,109.8 371.1,109.8 392.2,131.8 371.1,153.7 	"/>
	<polygon class="st59" points="266.3,175.9 245.4,154 266.3,132.1 308.1,132.1 329.1,154 308.1,175.9 	"/>
	<polygon class="st59" points="78.7,198.5 57.8,176.5 78.7,154.6 120.6,154.6 141.5,176.5 120.6,198.5 	"/>
	<polygon class="st59" points="205.6,199.8 184.7,177.9 205.6,155.9 247.4,155.9 268.3,177.9 247.4,199.8 	"/>
	<polygon class="st59" points="329.2,197.8 308.3,175.9 329.2,153.9 371,153.9 391.9,175.9 371,197.8 	"/>
</g>
<g id="Estartegia" class="st0">
	<path class="st1" d="M338.5,38.6c27,0,49-8.6,49-19.1c0-10.5-22-19.1-49-19.1s-49,8.6-49,19.1C289.5,30,311.5,38.6,338.5,38.6
		L338.5,38.6z M338.5,10.4c13,0,23.7,4.1,23.7,9.3c0,5.1-10.6,9.3-23.7,9.3s-23.7-4.2-23.7-9.3C314.9,14.4,325.4,10.4,338.5,10.4
		L338.5,10.4z M338.5,10.4"/>
	<path class="st1" d="M49.5,161.7c-27,0-49,8.6-49,19.1c0,10.5,22,19.1,49,19.1c27,0,49-8.6,49-19.1
		C98.5,170.3,76.4,161.7,49.5,161.7L49.5,161.7z M49.5,190c-13,0-23.7-4.1-23.7-9.3c0-5.1,10.6-9.3,23.7-9.3
		c13.1,0,23.7,4.1,23.7,9.3C73,185.9,62.5,190,49.5,190L49.5,190z M49.5,190"/>
	<linearGradient id="SVGID_9_" gradientUnits="userSpaceOnUse" x1="96.135" y1="67.8389" x2="192.3292" y2="67.8389">
		<stop  offset="0" style="stop-color:#CCE0F4"/>
		<stop  offset="6.405089e-02" style="stop-color:#C3DCF2"/>
		<stop  offset="0.1706" style="stop-color:#A9D2EE"/>
		<stop  offset="0.3066" style="stop-color:#80C2E7"/>
		<stop  offset="0.4649" style="stop-color:#47ACDE"/>
		<stop  offset="0.5674" style="stop-color:#1E9CD7"/>
		<stop  offset="0.8652" style="stop-color:#0075BE"/>
		<stop  offset="0.9944" style="stop-color:#005B97"/>
	</linearGradient>
	<path class="st65" d="M170.6,85c2.4,0.9,5.7,1.4,9,1.4c3.3,0,6.4-0.5,9-1.4c5-1.9,5-5,0-7l-26.4-10.2l26.4-10.2c5-1.9,5-5,0-7
		c-5-1.9-13-1.9-18,0l-26.4,10.2l-26.4-10.2c-5-1.9-13-1.9-18,0c-5,1.9-5,5,0,7l26.4,10.2L99.9,78.1c-5,1.9-5,5,0,7
		c2.4,0.9,5.7,1.4,9,1.4c3.3,0,6.4-0.5,9-1.4l26.4-10.2L170.6,85z M170.6,85"/>
	<linearGradient id="SVGID_10_" gradientUnits="userSpaceOnUse" x1="290.4297" y1="146.6678" x2="386.6256" y2="146.6678">
		<stop  offset="0" style="stop-color:#CCE0F4"/>
		<stop  offset="6.405089e-02" style="stop-color:#C3DCF2"/>
		<stop  offset="0.1706" style="stop-color:#A9D2EE"/>
		<stop  offset="0.3066" style="stop-color:#80C2E7"/>
		<stop  offset="0.4649" style="stop-color:#47ACDE"/>
		<stop  offset="0.5674" style="stop-color:#1E9CD7"/>
		<stop  offset="0.8652" style="stop-color:#0075BE"/>
		<stop  offset="0.9944" style="stop-color:#005B97"/>
	</linearGradient>
	<path class="st66" d="M382.9,129.5c-5-1.9-13-1.9-18,0l-26.4,10.2l-26.4-10.2c-5-1.9-13-1.9-18,0c-5,1.9-5,5,0,7l26.4,10.2
		l-26.4,10.2c-5,1.9-5,5,0,7c2.4,0.9,5.7,1.4,9,1.4c3.3,0,6.4-0.5,9-1.4l26.4-10.2l26.4,10.2c2.4,0.9,5.7,1.4,9,1.4
		c3.3,0,6.4-0.5,9-1.4c5-1.9,5-5,0-7l-26.4-10.2l26.4-10.2C387.9,134.5,387.9,131.4,382.9,129.5L382.9,129.5z M382.9,129.5"/>
	<linearGradient id="SVGID_11_" gradientUnits="userSpaceOnUse" x1="140.191" y1="172.0166" x2="236.3902" y2="172.0166">
		<stop  offset="0" style="stop-color:#CCE0F4"/>
		<stop  offset="6.405089e-02" style="stop-color:#C3DCF2"/>
		<stop  offset="0.1706" style="stop-color:#A9D2EE"/>
		<stop  offset="0.3066" style="stop-color:#80C2E7"/>
		<stop  offset="0.4649" style="stop-color:#47ACDE"/>
		<stop  offset="0.5674" style="stop-color:#1E9CD7"/>
		<stop  offset="0.8652" style="stop-color:#0075BE"/>
		<stop  offset="0.9944" style="stop-color:#005B97"/>
	</linearGradient>
	<path class="st67" d="M232.7,154.8c-5-1.9-13-1.9-18,0l-26.4,10.2l-26.4-10.2c-5-1.9-13-1.9-18,0c-5,1.9-5,5,0,7l26.4,10.2
		l-26.4,10.2c-5,1.9-5,5,0,7c2.4,0.9,5.7,1.4,9,1.4c3.3,0,6.4-0.5,9-1.4l26.4-10.2l26.4,10.2c2.4,0.9,5.7,1.4,9,1.4
		c3.3,0,6.4-0.5,9-1.4c5-1.9,5-5,0-7L206.3,172l26.4-10.2C237.5,159.9,237.5,156.7,232.7,154.8L232.7,154.8z M232.7,154.8"/>
	<linearGradient id="SVGID_12_" gradientUnits="userSpaceOnUse" x1="137.8911" y1="112.9711" x2="163.2516" y2="112.9711">
		<stop  offset="0" style="stop-color:#CCE0F4"/>
		<stop  offset="6.405089e-02" style="stop-color:#C3DCF2"/>
		<stop  offset="0.1706" style="stop-color:#A9D2EE"/>
		<stop  offset="0.3066" style="stop-color:#80C2E7"/>
		<stop  offset="0.4649" style="stop-color:#47ACDE"/>
		<stop  offset="0.5674" style="stop-color:#1E9CD7"/>
		<stop  offset="0.8652" style="stop-color:#0075BE"/>
		<stop  offset="0.9944" style="stop-color:#005B97"/>
	</linearGradient>
	<path class="st68" d="M150.6,117.9c7,0,12.7-2.2,12.7-4.9c0-2.7-5.7-4.9-12.7-4.9c-7,0-12.7,2.2-12.7,4.9
		C137.9,115.7,143.5,117.9,150.6,117.9L150.6,117.9z M150.6,117.9"/>
	<linearGradient id="SVGID_13_" gradientUnits="userSpaceOnUse" x1="50.9119" y1="128.2958" x2="76.2527" y2="128.2958">
		<stop  offset="0" style="stop-color:#CCE0F4"/>
		<stop  offset="6.405089e-02" style="stop-color:#C3DCF2"/>
		<stop  offset="0.1706" style="stop-color:#A9D2EE"/>
		<stop  offset="0.3066" style="stop-color:#80C2E7"/>
		<stop  offset="0.4649" style="stop-color:#47ACDE"/>
		<stop  offset="0.5674" style="stop-color:#1E9CD7"/>
		<stop  offset="0.8652" style="stop-color:#0075BE"/>
		<stop  offset="0.9944" style="stop-color:#005B97"/>
	</linearGradient>
	<path class="st69" d="M56.6,132.4c2.1,0.5,4.5,0.8,7,0.8c4.1,0,8.1-0.8,10.6-2.2c3.8-2.3,2.2-5.3-3.6-6.8
		c-5.8-1.5-13.7-0.9-17.5,1.4C49.1,127.8,50.7,130.9,56.6,132.4L56.6,132.4z M56.6,132.4"/>
	<linearGradient id="SVGID_14_" gradientUnits="userSpaceOnUse" x1="88.7166" y1="115.8493" x2="114.172" y2="115.8493">
		<stop  offset="0" style="stop-color:#CCE0F4"/>
		<stop  offset="6.405089e-02" style="stop-color:#C3DCF2"/>
		<stop  offset="0.1706" style="stop-color:#A9D2EE"/>
		<stop  offset="0.3066" style="stop-color:#80C2E7"/>
		<stop  offset="0.4649" style="stop-color:#47ACDE"/>
		<stop  offset="0.5674" style="stop-color:#1E9CD7"/>
		<stop  offset="0.8652" style="stop-color:#0075BE"/>
		<stop  offset="0.9944" style="stop-color:#005B97"/>
	</linearGradient>
	<path class="st70" d="M96.3,111.4c-6.4,1.1-9.3,4-6.4,6.5c2.1,1.8,6.8,2.9,11.6,2.9c1.7,0,3.5-0.1,5.2-0.4c6.4-1.1,9.3-4,6.4-6.5
		C110.1,111.4,102.6,110.3,96.3,111.4L96.3,111.4z M96.3,111.4"/>
	<linearGradient id="SVGID_15_" gradientUnits="userSpaceOnUse" x1="188.076" y1="112.9711" x2="213.4366" y2="112.9711">
		<stop  offset="0" style="stop-color:#CCE0F4"/>
		<stop  offset="6.405089e-02" style="stop-color:#C3DCF2"/>
		<stop  offset="0.1706" style="stop-color:#A9D2EE"/>
		<stop  offset="0.3066" style="stop-color:#80C2E7"/>
		<stop  offset="0.4649" style="stop-color:#47ACDE"/>
		<stop  offset="0.5674" style="stop-color:#1E9CD7"/>
		<stop  offset="0.8652" style="stop-color:#0075BE"/>
		<stop  offset="0.9944" style="stop-color:#005B97"/>
	</linearGradient>
	<path class="st71" d="M213.4,113c0,2.7-5.7,4.9-12.7,4.9c-7,0-12.7-2.2-12.7-4.9c0-2.7,5.7-4.9,12.7-4.9
		C207.8,108.1,213.4,110.3,213.4,113L213.4,113z M213.4,113"/>
	<g class="st1">
		<defs>
			<rect id="SVGID_16_" x="0.4" y="0.4" width="400" height="200"/>
		</defs>
		<clipPath id="SVGID_17_">
			<use xlink:href="#SVGID_16_"  style="overflow:visible;"/>
		</clipPath>
		<linearGradient id="SVGID_18_" gradientUnits="userSpaceOnUse" x1="36.7844" y1="146.673" x2="62.1397" y2="146.673">
			<stop  offset="0" style="stop-color:#CCE0F4"/>
			<stop  offset="6.405089e-02" style="stop-color:#C3DCF2"/>
			<stop  offset="0.1706" style="stop-color:#A9D2EE"/>
			<stop  offset="0.3066" style="stop-color:#80C2E7"/>
			<stop  offset="0.4649" style="stop-color:#47ACDE"/>
			<stop  offset="0.5674" style="stop-color:#1E9CD7"/>
			<stop  offset="0.8652" style="stop-color:#0075BE"/>
			<stop  offset="0.9944" style="stop-color:#005B97"/>
		</linearGradient>
		<path class="st72" d="M49.5,151.6c3.4,0,6.7-0.5,9-1.4c2.3-0.9,3.7-2.2,3.7-3.5c0-1.3-1.4-2.6-3.7-3.5c-2.3-0.9-5.6-1.4-9-1.4
			c-3.4,0-6.7,0.5-9,1.4c-2.3,0.9-3.7,2.2-3.7,3.5c0,1.3,1.4,2.6,3.7,3.5C42.8,151.1,46.1,151.6,49.5,151.6L49.5,151.6z M49.5,151.6
			"/>
		<linearGradient id="SVGID_19_" gradientUnits="userSpaceOnUse" x1="238.1579" y1="83.7897" x2="400.1514" y2="83.7897">
			<stop  offset="0" style="stop-color:#CCE0F4"/>
			<stop  offset="6.405089e-02" style="stop-color:#C3DCF2"/>
			<stop  offset="0.1706" style="stop-color:#A9D2EE"/>
			<stop  offset="0.3066" style="stop-color:#80C2E7"/>
			<stop  offset="0.4649" style="stop-color:#47ACDE"/>
			<stop  offset="0.5674" style="stop-color:#1E9CD7"/>
			<stop  offset="0.8652" style="stop-color:#0075BE"/>
			<stop  offset="0.9944" style="stop-color:#005B97"/>
		</linearGradient>
		<path class="st73" d="M396.4,70.2l-49-19c-5-1.9-13-1.9-18,0l-49,19c-5,1.9-5,5,0,7c5,1.9,13,1.9,18,0l27.4-10.6v12.7
			c0,15.9-33.6,28.8-74.9,28.8c-7,0-12.7,2.2-12.7,4.9c0,2.7,5.7,4.9,12.7,4.9c55.3,0,100.3-17.3,100.3-38.6V66.5l27.4,10.6
			c2.4,0.9,5.7,1.4,9,1.4c3.3,0,6.4-0.5,9-1.4C401.4,75.2,401.4,72.1,396.4,70.2L396.4,70.2z M396.4,70.2"/>
	</g>
</g>
<g class="st0">
	<path class="st74" d="M61.9,94.9h-44C8,94.9,0,98.9,0,103.9v85.1c0,5,8,9,17.9,9h44c9.9,0,17.9-4,17.9-9v-85.1
		C79.9,98.9,71.8,94.9,61.9,94.9L61.9,94.9z M61.9,94.9"/>
	<path class="st74" d="M166.9,121.8h-44c-9.9,0-18,4-18,9v58.2c0,5,8,9,18,9h44c9.9,0,17.9-4,17.9-9v-58.2
		C184.8,125.8,176.8,121.8,166.9,121.8L166.9,121.8z M166.9,121.8"/>
	<path class="st74" d="M271.9,121.8h-44c-9.9,0-17.9,4-17.9,9v58.2c0,5,8,9,17.9,9h44c9.9,0,17.9-4,17.9-9v-58.2
		C289.8,125.8,281.8,121.8,271.9,121.8L271.9,121.8z M271.9,121.8"/>
	<path class="st74" d="M376.9,94.9h-44c-9.9,0-18,4-18,8.9v85.1c0,5,8,9,18,9h44c9.9,0,17.9-4,17.9-9v-85.1
		C394.8,98.9,386.8,94.9,376.9,94.9L376.9,94.9z M376.9,94.9"/>
	<g class="st1">
		<defs>
			<rect id="SVGID_20_" y="0" width="400" height="200"/>
		</defs>
		<clipPath id="SVGID_21_">
			<use xlink:href="#SVGID_20_"  style="overflow:visible;"/>
		</clipPath>
		<path class="st75" d="M244.6,18c-0.7-0.3-1.4-0.6-2.3-0.7l-51.4-8c-20.6-3.2-34,2.4-37.5,4.2c-2.1,1-3.7,2.1-4.5,3.1l-22.9,26.9
			c-1.3,1.5-0.9,3.6,1.2,5.7c3,2.9,8.2,5,14.6,5.8c7.1,0.8,14.5-0.3,20.2-3.2c1.5-0.7,2.8-1.6,3.5-2.3l7.7-7.1
			c1.2-1.2,3.1-2.4,5-3.4c6.6-3.3,9.8-1.8,11.1-1.2c11.5,5.6,71.9,35.8,71.9,35.8c2.2,1,1.7,3.1-1,4.4c-2.7,1.3-6.8,1.6-8.9,0.5
			L234.4,70c-2.2-1.1-5.7-1.1-7.9,0c-2.2,1.1-2.2,2.9,0,3.9l16.9,8.5c2.1,1.1,1.7,3.1-1,4.4c-2.7,1.3-6.8,1.6-8.9,0.5l-17-8.4
			c-2.2-1.1-5.8-1.1-7.9,0c-2.2,1.1-2.2,2.9,0,3.9l17,8.5c2.1,1,1.6,3.1-1,4.4c-2.6,1.4-6.7,1.6-8.9,0.5l-17-8.5
			c-2.1-1.1-5.7-1.1-7.9,0c-2.2,1.1-2.2,2.8,0,3.9l16.9,8.5c2.2,1.1,1.7,3.1-0.9,4.4c-2.7,1.3-6.8,1.6-8.9,0.5l-20.7-10.3
			c3-2.2,2.1-5.4-2.2-7.6c-4.9-2.4-12.4-2.7-16.8-0.5c4.4-2.2,3.9-5.9-0.9-8.3c-4.9-2.5-12.5-2.7-16.8-0.5c4.3-2.2,3.9-5.9-1-8.4
			c-4.9-2.5-12.4-2.7-16.8-0.5c4.4-2.2,3.9-5.9-0.9-8.4c-4.6-2.3-11.5-2.6-15.9-0.8L72.3,43c-2.2-1.1-5.7-1.1-7.9,0
			c-2.1,1.1-2.1,2.9,0,3.9l33.4,16.7l-9.9,5c-4.4,2.2-3.9,5.9,1,8.4c4.9,2.4,12.4,2.7,16.8,0.5c-4.4,2.2-4,5.9,1,8.4
			c4.9,2.4,12.4,2.7,16.8,0.5c-4.4,2.2-3.9,6,0.9,8.4c4.9,2.5,12.5,2.7,16.8,0.5c-4.3,2.2-3.9,5.9,1,8.4c4.9,2.4,12.4,2.7,16.8,0.5
			l10.5-5.2l20.5,10.2c6.6,3.3,17.6,3,24.7-0.5c3.5-1.7,5.3-3.9,5.6-6.1c4.4-0.1,8.8-1,12.2-2.8c3.5-1.7,5.3-3.9,5.6-6.1
			c4.4-0.1,8.8-1.1,12.2-2.8c3.5-1.7,5.3-3.9,5.6-6.1c4.4-0.1,8.8-1,12.2-2.8c7.1-3.5,7.5-9,1-12.3l-8.7-4.3L296,47.6
			c2.2-1.1,2.2-2.9,0-3.9L244.6,18z M244.6,18"/>
		<path class="st75" d="M328.7,24.2L283.5,1.6c-4.4-2.2-11.4-2.2-15.8,0l-15.8,7.9c-4.3,2.2-4.3,5.7,0,7.9L297.1,40
			c4.4,2.2,11.5,2.2,15.8,0l15.8-7.9C333.1,30,333.1,26.4,328.7,24.2L328.7,24.2z M305,35.7c-5.1,0-9.1-2.1-9.1-4.6
			c0-2.5,4.1-4.6,9.1-4.6c5.1,0,9.2,2.1,9.2,4.6C314.2,33.7,310.1,35.7,305,35.7L305,35.7z M305,35.7"/>
	</g>
</g>
<g id="Comunicacin" class="st0">
	<ellipse class="st76" cx="200" cy="100" rx="200" ry="100"/>
	<path class="st77" d="M171.9,90.6H68.8C58.4,90.6,50,94.8,50,100v40.6c0,5.2,8.4,9.4,18.8,9.4H81c-0.3,2.1-1,4-2.8,5.4
		c-1.8,1.5-0.1,2.2,4.7,1.5c6.7-1,12.9-3,15.6-6.9h73.4c10.3,0,18.8-4.2,18.8-9.4V100C190.6,94.8,182.2,90.6,171.9,90.6z"/>
	<g class="st1">
		<path class="st78" d="M171.9,90.6h-12.5c10.3,0,18.8,4.2,18.8,9.4v40.6c0,5.2-8.4,9.4-18.8,9.4h12.5c10.3,0,18.8-4.2,18.8-9.4V100
			C190.6,94.8,182.2,90.6,171.9,90.6z"/>
		<path class="st78" d="M171.9,90.6h-15.6v29.9c0,9.2,15.3,17,33.3,17h1V100C190.6,94.8,182.2,90.6,171.9,90.6z"/>
	</g>
	<path class="st79" d="M189.6,48.4h149c14.9,0,27.1,5.9,27.1,13.4v58.7c0,7.5-12.2,13.9-27.1,13.9h-17.7c0.4,3.1,1.5,5.9,4.2,8
		c2.6,2,2.5,3.1-3.3,2.4c-11.1-1.3-21.8-4.2-26.2-10.4H189.6c-14.9,0-27.1-6.4-27.1-13.9V61.8C162.5,54.4,174.7,48.4,189.6,48.4z"/>
	<path class="st80" d="M338.5,48.4H326c14.9,0,27.1,5.9,27.1,13.4v58.7c0,7.5-12.2,13.9-27.1,13.9h12.5c14.9,0,27.1-6.4,27.1-13.9
		V61.8C365.6,54.4,353.4,48.4,338.5,48.4z"/>
	<g class="st1">
		<ellipse class="st81" cx="218.8" cy="104.7" rx="9.4" ry="4.7"/>
		<ellipse class="st81" cx="250" cy="104.7" rx="9.4" ry="4.7"/>
		<ellipse class="st81" cx="281.2" cy="104.7" rx="9.4" ry="4.7"/>
		<ellipse class="st81" cx="312.5" cy="104.7" rx="9.4" ry="4.7"/>
		<ellipse class="st81" cx="78.1" cy="135.9" rx="6.2" ry="3.1"/>
		<ellipse class="st81" cx="103.1" cy="135.9" rx="6.2" ry="3.1"/>
		<ellipse class="st81" cx="128.1" cy="135.9" rx="6.2" ry="3.1"/>
	</g>
</g>
<image style="display:none;overflow:visible;" width="1342" height="294" xlink:href="17D3AADC90208CD4.png"  transform="matrix(0.2981 0 0 0.6803 0 0)">
</image>
<image style="display:none;overflow:visible;" width="400" height="200" xlink:href="../../../../../Documents/SECNAR/Contenido Sitio/src/assets/img/entrenamientos.png" >
</image>
<g>
	<g>
		<defs>
			<polyline id="SVGID_22_" points="328,61 71,61 71,138 328,138 328,61 			"/>
		</defs>
		<clipPath id="SVGID_23_">
			<use xlink:href="#SVGID_22_"  style="overflow:visible;"/>
		</clipPath>
		<g style="clip-path:url(#SVGID_23_);">
			
				<image style="overflow:visible;" width="259" height="79" xlink:href="17D3AADC90208CD3.jpg"  transform="matrix(1 0 0 1 70 60)">
			</image>
		</g>
	</g>
</g>
</svg>
