<?xml version="1.0" encoding="utf-8"?>
<!-- Generator: Adobe Illustrator 20.1.0, SVG Export Plug-In . SVG Version: 6.00 Build 0)  -->
<svg version="1.1" id="Layer_1" xmlns="http://www.w3.org/2000/svg" xmlns:xlink="http://www.w3.org/1999/xlink" x="0px" y="0px"
	 viewBox="0 0 75 75" style="enable-background:new 0 0 75 75;" xml:space="preserve">
<style type="text/css">
	.st0{fill:#E95F26;}
</style>
<g>
	<path class="st0" d="M46.9,37.6c0-5.2-4.2-9.4-9.4-9.4s-9.4,4.2-9.4,9.4s4.2,9.5,9.4,9.5S46.9,42.8,46.9,37.6z M37.5,43.3
		c-3.2,0-5.7-2.5-5.7-5.7c0-3.1,2.6-5.7,5.7-5.7s5.7,2.6,5.7,5.7C43.2,40.7,40.7,43.3,37.5,43.3z"/>
	<circle class="st0" cx="23.9" cy="37.6" r="1.8"/>
	<circle class="st0" cx="17.8" cy="37.6" r="1.8"/>
	<path class="st0" d="M13.7,37.6c0-3.8-3-6.7-6.8-6.7S0,33.8,0,37.6s3,6.8,6.8,6.8S13.7,41.3,13.7,37.6z M6.8,40.7
		c-1.6,0-3.1-1.3-3.1-3.2c0-1.6,1.4-3.1,3.1-3.1s3.1,1.3,3.1,3.1C9.9,39.2,8.5,40.7,6.8,40.7z"/>
	<circle class="st0" cx="57.1" cy="37.6" r="1.8"/>
	<circle class="st0" cx="51.1" cy="37.6" r="1.8"/>
	<path class="st0" d="M68.2,30.8c-3.8,0-6.8,3-6.8,6.7s3,6.8,6.8,6.8s6.8-3,6.8-6.8S72,30.8,68.2,30.8z M68.2,40.7
		c-1.6,0-3.1-1.3-3.1-3.2c0-1.6,1.3-3.1,3.1-3.1c1.6,0,3.1,1.3,3.1,3.1C71.4,39.4,69.9,40.7,68.2,40.7z"/>
	<circle class="st0" cx="37.5" cy="51.2" r="1.8"/>
	<circle class="st0" cx="37.5" cy="57.2" r="1.8"/>
	<path class="st0" d="M37.5,61.4c-3.8,0-6.8,3-6.8,6.8s3,6.8,6.8,6.8s6.8-3,6.8-6.8C44.2,64.6,41.2,61.4,37.5,61.4z M37.5,71.3
		c-1.7,0-3.2-1.3-3.2-3.1c0-1.7,1.3-3.2,3.2-3.2s3.2,1.4,3.2,3.2S39.2,71.3,37.5,71.3z"/>
	<circle class="st0" cx="37.5" cy="23.9" r="1.8"/>
	<circle class="st0" cx="37.5" cy="17.9" r="1.8"/>
	<path class="st0" d="M37.5,13.7c3.8,0,6.8-3,6.8-6.8s-3-6.9-6.8-6.9s-6.8,3-6.8,6.8S33.8,13.7,37.5,13.7z M37.5,3.8
		c1.7,0,3.2,1.4,3.2,3.1s-1.5,3-3.2,3s-3.2-1.4-3.2-3.1S35.8,3.8,37.5,3.8z"/>
	<path class="st0" d="M26.6,46c-0.8,0.8-0.8,2,0,2.5c0.8,0.8,1.9,0.8,2.6,0c0.8-0.8,0.8-2,0-2.5C28.3,45.2,27.3,45.2,26.6,46z"/>
	<circle class="st0" cx="23.5" cy="51.5" r="1.8"/>
	<path class="st0" d="M11,54.5c-2.7,2.7-2.7,6.9,0,9.6c2.7,2.7,6.9,2.7,9.6,0s2.7-6.9,0-9.6C18,51.8,13.7,51.8,11,54.5z M18,61.4
		c-1.2,1.2-3.2,1.2-4.3,0c-1.2-1.2-1.2-3.2,0-4.4s3.2-1.2,4.3,0C19.2,58.3,19.2,60.2,18,61.4z"/>
	<circle class="st0" cx="51.4" cy="23.6" r="1.8"/>
	<circle class="st0" cx="47.1" cy="28" r="1.8"/>
	<path class="st0" d="M64.1,20.6c2.7-2.7,2.7-6.9,0-9.6c-2.7-2.7-6.9-2.7-9.6,0c-2.7,2.7-2.7,6.9,0,9.6C57,23.3,61.4,23.3,64.1,20.6
		z M57,13.7c1.2-1.2,3.1-1.2,4.4,0c1.2,1.2,1.2,3.2,0,4.3c-1.2,1.2-3.1,1.2-4.4,0C55.8,16.9,55.8,14.9,57,13.7z"/>
	<circle class="st0" cx="51.4" cy="51.5" r="1.8"/>
	<ellipse transform="matrix(0.7071 -0.7071 0.7071 0.7071 -19.6182 47.1215)" class="st0" cx="47.1" cy="47.2" rx="1.8" ry="1.8"/>
	<path class="st0" d="M54.4,54.5c-2.7,2.7-2.7,6.9,0,9.6c2.7,2.7,6.9,2.7,9.6,0c2.7-2.7,2.7-6.9,0-9.6C61.4,51.8,57,51.8,54.4,54.5z
		 M61.4,61.4c-1.2,1.2-3.1,1.2-4.4,0c-1.2-1.2-1.2-3.2,0-4.4s3.1-1.2,4.4,0C62.7,58.3,62.7,60.2,61.4,61.4z"/>
	<circle class="st0" cx="27.9" cy="28" r="1.8"/>
	<circle class="st0" cx="23.5" cy="23.6" r="1.8"/>
	<path class="st0" d="M20.5,20.6c2.7-2.7,2.7-6.9,0-9.6s-6.9-2.7-9.6,0s-2.7,6.9,0,9.6S18,23.3,20.5,20.6z M13.7,13.7
		c1.2-1.2,3.2-1.2,4.3,0c1.2,1.2,1.2,3.2,0,4.3c-1.2,1.2-3.2,1.2-4.3,0C12.3,16.9,12.3,14.9,13.7,13.7z"/>
</g>
</svg>
