<?xml version="1.0" encoding="utf-8"?>
<!-- Generator: Adobe Illustrator 20.1.0, SVG Export Plug-In . SVG Version: 6.00 Build 0)  -->
<svg version="1.1" id="Layer_1" xmlns="http://www.w3.org/2000/svg" xmlns:xlink="http://www.w3.org/1999/xlink" x="0px" y="0px"
	 viewBox="0 0 50 50" style="enable-background:new 0 0 50 50;" xml:space="preserve">
<style type="text/css">
	.st0{fill:#E95F26;}
</style>
<g>
	<path class="st0" d="M18.9,42.9c-9.2,0-16.7-7.5-16.7-16.7V10.5l16.7-7l16.7,7V17c0,0.6,0.5,1.1,1.1,1.1c0.6,0,1.1-0.5,1.1-1.1V9.7
		c0-0.4-0.3-0.9-0.7-1L19.4,1.3c-0.3-0.1-0.6-0.1-0.9,0L0.7,8.7C0.3,8.9,0,9.3,0,9.7v16.5c0,10.4,8.5,18.9,18.9,18.9
		c0.6,0,1.1-0.5,1.1-1.1C20,43.4,19.5,42.9,18.9,42.9z"/>
	<path class="st0" d="M36.5,29.5c-3.2,0-5.9,2.6-5.9,5.9c0,3.2,2.6,5.9,5.9,5.9c3.2,0,5.9-2.6,5.9-5.9
		C42.4,32.1,39.8,29.5,36.5,29.5z M36.5,39c-2,0-3.6-1.6-3.6-3.6c0-2,1.6-3.6,3.6-3.6s3.6,1.6,3.6,3.6C40.1,37.4,38.5,39,36.5,39z"
		/>
	<path class="st0" d="M48.1,32.3h-1c-0.2-0.8-0.5-1.5-0.9-2.3l0.7-0.7c0.4-0.4,0.6-0.9,0.6-1.4c0-0.5-0.2-1-0.6-1.4l-1.6-1.6
		c-0.4-0.4-0.9-0.6-1.4-0.6c-0.5,0-1,0.2-1.4,0.6l-0.7,0.7c-0.7-0.4-1.5-0.7-2.3-0.9v-1c0-1.1-0.9-1.9-1.9-1.9h-2.2
		c-1.1,0-1.9,0.9-1.9,1.9v1c-0.8,0.2-1.5,0.5-2.3,0.9l-0.7-0.7c-0.4-0.4-0.9-0.6-1.4-0.6c-0.5,0-1,0.2-1.4,0.6l-1.6,1.6
		c-0.4,0.4-0.6,0.9-0.6,1.4c0,0.5,0.2,1,0.6,1.4l0.7,0.7c-0.4,0.7-0.7,1.5-0.9,2.3h-1c-1.1,0-1.9,0.9-1.9,1.9v2.2
		c0,1.1,0.9,1.9,1.9,1.9h1c0.2,0.8,0.5,1.5,0.9,2.3l-0.7,0.7c-0.8,0.8-0.8,2,0,2.7l1.6,1.6c0.4,0.4,0.9,0.6,1.4,0.6
		c0.5,0,1-0.2,1.4-0.6l0.7-0.7c0.7,0.4,1.5,0.7,2.3,0.9v1c0,1.1,0.9,1.9,1.9,1.9h2.2c1.1,0,1.9-0.9,1.9-1.9v-1
		c0.8-0.2,1.5-0.5,2.3-0.9l0.7,0.7c0.4,0.4,0.9,0.6,1.4,0.6c0.5,0,1-0.2,1.4-0.6l1.6-1.6c0.4-0.4,0.6-0.9,0.6-1.4
		c0-0.5-0.2-1-0.6-1.4l-0.7-0.7c0.4-0.7,0.7-1.5,0.9-2.3h1c1.1,0,1.9-0.9,1.9-1.9v-2.2C50,33.2,49.1,32.3,48.1,32.3z M47.8,36.2
		h-1.5c-0.5,0-1,0.4-1.1,0.9c-0.2,1.1-0.7,2.2-1.3,3.2c-0.3,0.4-0.2,1,0.1,1.4l1.1,1.1l-1.1,1.1l-1.1-1.1c-0.4-0.4-1-0.4-1.4-0.1
		c-1,0.6-2,1.1-3.2,1.3c-0.5,0.1-0.9,0.6-0.9,1.1v1.5h-1.6v-1.5c0-0.5-0.4-1-0.9-1.1c-1.1-0.2-2.2-0.7-3.2-1.3
		c-0.4-0.3-1-0.2-1.4,0.1l-1.1,1.1L28,42.8l1.1-1.1c0.4-0.4,0.4-1,0.1-1.4c-0.6-1-1.1-2-1.3-3.2c-0.1-0.5-0.6-0.9-1.1-0.9h-1.5v-1.6
		h1.5c0.5,0,1-0.4,1.1-0.9c0.2-1.1,0.7-2.2,1.3-3.2c0.3-0.4,0.2-1-0.1-1.4L28,28l1.1-1.1l1.1,1.1c0.4,0.4,1,0.4,1.4,0.1
		c1-0.6,2-1.1,3.2-1.3c0.5-0.1,0.9-0.6,0.9-1.1v-1.5h1.6v1.5c0,0.5,0.4,1,0.9,1.1c1.1,0.2,2.2,0.7,3.2,1.3c0.4,0.3,1,0.2,1.4-0.1
		l1.1-1.1L45,28L44,29.1c-0.4,0.4-0.4,1-0.1,1.4c0.6,1,1.1,2,1.3,3.2c0.1,0.5,0.6,0.9,1.1,0.9h1.5V36.2z"/>
	<path class="st0" d="M27.8,16.3L16.7,28.9l-6.7-5.4c-0.3-0.3-0.8-0.2-1,0.1c-0.2,0.3-0.2,0.8,0.1,1l7.3,5.8
		c0.1,0.1,0.3,0.2,0.5,0.2c0.2,0,0.4-0.1,0.5-0.2l11.6-13.1c0.3-0.3,0.2-0.8-0.1-1C28.5,16,28.1,16,27.8,16.3z"/>
</g>
</svg>
