<?xml version="1.0" encoding="utf-8"?>
<!-- Generator: Adobe Illustrator 20.1.0, SVG Export Plug-In . SVG Version: 6.00 Build 0)  -->
<svg version="1.1" id="Layer_1" xmlns="http://www.w3.org/2000/svg" xmlns:xlink="http://www.w3.org/1999/xlink" x="0px" y="0px"
	 viewBox="0 0 75 75" style="enable-background:new 0 0 75 75;" xml:space="preserve">
<style type="text/css">
	.st0{fill:#E95F26;}
</style>
<path class="st0" d="M74.1,27.1l-35.9-18c-0.4-0.2-1-0.2-1.4,0l-35.9,18C0.3,27.4,0,27.9,0,28.5s0.3,1.2,0.9,1.4l11.5,5.7v16.9
	c0,1.6,0.7,3.1,1.9,4.2c6.4,5.7,14.7,8.9,23.3,8.9s16.9-3.2,23.3-8.9c1.2-1.1,1.9-2.6,1.9-4.2V35.6l3.8-1.9v12.4
	c-1.7,0.6-2.9,2.3-2.9,4.2c0,1.8,1,3.3,2.6,4.1l-3,9.6c-0.1,0.5,0,1,0.3,1.4s0.8,0.6,1.3,0.6h6.4c0.5,0,1-0.2,1.3-0.6
	s0.4-0.9,0.3-1.4l-2.9-9.5c1.5-0.7,2.6-2.3,2.6-4.1c0-1.9-1.2-3.6-2.9-4.2v-14l4.5-2.2c0.5-0.3,0.9-0.8,0.9-1.4S74.6,27.4,74.1,27.1
	z M59.4,52.6c0,0.7-0.3,1.3-0.8,1.8c-5.8,5.2-13.3,8.1-21.1,8.1s-15.3-2.9-21.1-8.1c-0.5-0.5-0.8-1.1-0.8-1.8V37.3l21.2,10.6
	c0.2,0.1,0.5,0.2,0.7,0.2s0.5-0.1,0.7-0.2l21.2-10.6V52.6z M66.9,62.8l1.1-3.7l1.1,3.7H66.9z M67.9,51.8c-0.7,0-1.4-0.6-1.4-1.4
	c0-0.7,0.6-1.4,1.4-1.4c0.7,0,1.4,0.6,1.4,1.4S68.8,51.8,67.9,51.8z M67.6,29.6L37.5,27c-0.9-0.1-1.6,0.6-1.7,1.4
	c-0.1,0.9,0.6,1.6,1.4,1.7l24.9,2.2L37.5,44.7L5.1,28.5l32.4-16.2l32.3,16.2L67.6,29.6z"/>
</svg>
